<svg height="165.52472mm" viewBox="0 0 166.44859 165.52472" width="166.44859mm" xmlns="http://www.w3.org/2000/svg"><g transform="translate(-873.47259 337.45918)"><g><path d="m525.13524-773.19014 1.77378 4.3094-64.48583 26.5427-1.6532-4.01647-24.51365 10.08994 1.97676 4.80257-15.20992 13.4185 20.34969 23.06694 7.24656-6.39269 25.0323 60.81628 7.09394-2.9199 8.5703 20.82164 96.17895-39.58775-9.78762-23.77917 10.45621-4.30383-23.24416-56.47199 5.67329.00018.00029-30.7602-18.33449.00017-2.67941-4.16421z" fill="#e8c491" stroke-linecap="square" stroke-width=".242874" transform="matrix(.92473004 .38062364 -.38062364 .92473004 0 0)"/><g transform="translate(2.3986 -2.931622)"><path d="m803.95481-410.64183v8.19536h8.4615v-8.19536zm-128.67897.50229c-2.45345 0-4.42867 1.97522-4.42867 4.42867 0 2.45346 1.97522 4.42867 4.42867 4.42867h3.39204c2.45345 0 4.42867-1.97521 4.42867-4.42867 0-2.45345-1.97522-4.42867-4.42867-4.42867zm121.64529 2.07326c-2.81886 0-5.08806 2.2692-5.08806 5.08806v9.04544c0 .19117.0107.38029.031.56586h-2.59209c-3.69686 0-6.67297 2.97611-6.67297 6.67298v1.72961c0 3.69687 2.97611 6.67349 6.67297 6.67349h3.23753c3.69687 0 6.6735-2.97662 6.6735-6.67349v-1.72961c0-.87438-.16661-1.70882-.46974-2.47272 1.92964-.72186 3.29644-2.57853 3.29644-4.76612v-9.04544c0-2.81886-2.26972-5.08806-5.08858-5.08806zm-108.3598 1.13068c-2.71445 0-4.89944 4.58077-4.89944 10.27069 0 5.68993 2.18499 10.27069 4.89944 10.27069 2.71446 0 4.89996-4.58076 4.89996-10.27069 0-5.68992-2.1855-10.27069-4.89996-10.27069zm14.76499 16.93333c-2.74075-.0684-6.69179 1.90344-10.09034 5.2741-4.53139 4.49422-6.31402 9.72273-3.99665 11.7228 2.30978 1.99352 7.79519.005 12.31811-4.45813-.88668 3.31068 4.62959 8.30676 13.51959 11.90522 9.00866 3.64649 18.32544 4.58056 22.22913 2.41794 4.30836 1.9022 10.63839 2.9362 18.04386 2.66754 15.12536-.54873 28.83965-6.31816 30.74955-12.93565 1.90989-6.61749-8.729-11.5031-23.85436-10.95437-13.46984.48867-25.82069 5.11766-29.71188 10.79883-1.97202-1.24132-4.32503-2.44029-6.9789-3.51452-8.91573-3.60888-18.13331-4.56069-22.10667-2.48357 3.12744-3.93278 4.12071-7.96749 2.15026-9.66814-.57934-.50002-1.35811-.74925-2.2717-.77205z" fill="#b07236" stroke-linecap="square" stroke-width=".940866"/><g fill="#32271c" transform="translate(-.000005 .000011)"><path d="m789.94171-517.61877c-2.47631.005-4.97869 1.27473-10.29446 3.81476-6.93786 3.3151-6.93786 3.315-7.9375 2.91972-4.73655-1.87295-12.87342-2.21833-21.10827-.89556-5.37971.86415-10.13512.96793-14.68438.3204-8.16493-1.16221-9.38183-1.26447-13.22917-1.11156-3.85948.15338-6.04622.50325-9.30692 1.48828-1.76646.53363-1.76647.53355-8.20209-2.62878-10.2316-5.0276-9.93271-5.01608-18.87119-.74001-25.74139 12.3144-24.47016 11.59398-25.98808 14.72779-1.73937 3.591-1.65056 3.91405 6.25543 22.76812 4.29952 10.25341 6.17776 11.87037 11.60084 9.9844 1.05264-.36607 1.9141-.62506 1.9141-.57516s-.41956 1.79434-.93225 3.87625c-5.15082 20.91618-5.17558 28.75602-.1297 40.89311 1.03953 2.50039 1.0081 6.32627-.0605 7.36027-.0375.0362-2.86618 1.64026-6.28592 3.56465-10.51799 5.91877-10.49701 5.25604-.34881 11.03601 3.32056 1.89124 6.53433 3.68951 7.14168 3.99614.98354.49657 1.15172.72416 1.53841 2.0836 1.06291 3.73672 3.11869 8.65929 4.78317 11.45253.71199 1.19482.71218 1.19482-1.14825 5.82083-4.0511 10.07318-3.82064 10.23717 9.1152 6.48694 2.93688-.85143 2.55543-.92117 4.74648.86972 8.38501 6.8536 21.85448 11.72645 35.95233 13.00644 4.62377.4198 4.40563.33983 5.11597 1.86448.33982.72939 1.00849 1.74088 1.48621 2.24741 1.46405 1.55235 2.47134 1.13472 4.02456-1.66863 1.23118-2.22211.9464-2.06967 4.28243-2.29288 8.00596-.53566 17.61428-2.95695 25.13748-6.3345 3.26935-1.46779 3.26906-1.46764 6.60735.31058 7.8005 4.15514 8.0248 4.00812 6.77116-4.43953-.55377-3.73156-.65976-3.4306 1.9389-5.50715 6.71966-5.36956 7.82352-6.32093 9.14312-7.93079.69623-.84938 3.25698-9.87969 3.62081-10.67856.14305-.31409.17305-.32176.7014-1.99095.90462-2.85792.94454-2.9015 4.62608-4.95732 13.71781-7.66024 13.8151-7.73597 11.80651-9.23923-.78011-.58384-7.24811-4.41058-7.45484-4.41058-.0479 0-1.42668-.76897-3.0639-1.70894s-3.0722-1.74364-3.18895-1.78594c-1.30934-.47434-1.34544-4.74009-.0646-7.63106 5.20193-11.74117 5.19178-18.42681-.0605-39.67819-.65031-2.63127-1.18235-4.8328-1.18235-4.8917v-.00051-.00052c.00005-.0002.00044-.001.00051-.002v-.00052l.00052-.00051.00052-.00052.00051-.00052.00052-.00051c.0462-.0343.65234.20287 1.38648.54467 2.80968 1.30809 6.40646.63417 8.33489-1.56218 1.10674-1.2605 1.42173-1.9038 4.03541-8.23671 1.20117-2.91042 3.30443-7.93148 4.67362-11.15797 4.82118-11.36108 4.24151-12.46287-10.21126-19.41174-4.44916-2.13915-10.23255-4.92537-12.85193-6.19187-5.2106-2.51937-7.66054-3.77931-10.13685-3.77445zm-94.95596 6.18102c.40468.002.30794.30604-.17363.86558-2.72679 3.16831-8.3908 14.82635-14.3428 29.52171-1.33869 3.30516-2.6448 6.12637-3.02204 6.52777-2.00157 2.12982-2.42337 1.38445-10.60865-18.74252-1.74347-4.28706-2.24721-3.85081 13.27412-11.51041 9.52959-4.70274 13.83882-6.66756 14.873-6.66213zm95.63395.0791c.74329.0402 2.50121.72942 5.05809 1.99057 1.88898.93171 7.4619 3.62385 12.38426 5.98258 10.80856 5.17934 11.1988 5.43665 11.1988 7.38405 0 .7498-8.87872 21.7255-9.31261 22.00072-1.50039.95168-2.64443-.31975-4.55786-5.06532-5.66255-14.04387-9.65873-22.71695-13.21366-28.67835-1.1186-1.87582-1.97666-3.46745-1.90686-3.53725.0608-.0608.17832-.0863.34984-.077zm-7.61348 4.86843c.20363-.004.32461.15536.55242.45631.73715.97383 2.74254 4.86642 3.7977 7.37112 1.23673 2.93569 1.26492 2.94822-2.41484-1.10536-5.14585-5.6686-4.80242-5.02547-3.22151-6.03994.71873-.46121 1.05544-.67704 1.28623-.68213zm-80.42145.26149c.014-.001.0268-.00001.0388.003 2.23666.5828 2.29821 1.30841.29765 3.51348-2.16653 2.388-6.16241 6.37744-6.16241 6.15259 0-1.43508 4.94301-9.60407 5.826-9.66917zm19.66133.20877c3.01131-.14623 6.35232.11896 10.76058.76016 9.02304 1.31245 12.37342 1.28772 19.31459-.14366 5.2584-1.08437 13.37134-.70996 17.95549.82889 8.8478 2.97011 24.66656 23.29903 27.78177 35.70273 6.49477 25.85993 6.7296 31.53077 1.76578 42.65321-3.72895 8.35547-7.20025 14.34149-7.54528 13.01109-.90806-3.50149-1.51716-5.4868-2.68304-8.74417-1.55721-4.35072-1.59618-3.39289.29043-7.21248 2.429-4.91769 3.01173-7.43205 3.01118-12.99249-.00055-5.46852-.33302-7.43086-.87436-5.15937-1.09028 4.57486-2.53517 7.99195-5.11804 12.10469-1.66594 2.6527-1.36691 2.67844-3.10678-.26407-2.16367-3.65923-5.12986-8.2615-6.89261-10.69444-1.59179-2.19699-1.83233-2.73368-1.22731-2.73368 3.20467 0 9.00963-6.00395 9.59786-9.92653.17594-1.17324.18911-1.18597 1.21543-1.18597 1.33025 0 1.17499-.33559-1.42007-3.06751-3.08789-3.25074-6.1565-4.4186-9.86399-3.7543-.98132.17584-.9332.12771.66145-.66145 1.61443-.79899 1.89432-.85112 4.56407-.85112 3.34648 0 3.31463.0413 1.04748-1.36735-7.42969-4.61637-12.70987-3.84092-19.52956 2.86804-2.87346 2.8268-5.01001-.27577-4.99091-7.2471.008-3.10081.008-3.10108-.57102-2.55695-1.88935 1.77495-3.00964 5.45729-3.00964 9.8919 0 3.19686 0 3.19672-4.82865 3.78633-5.85279.71467-6.80989.71882-12.36927.0532-2.40109-.28746-4.43675-.52514-4.52375-.52814s-.10564-1.16602-.0413-2.58485c.1807-3.98655-.92194-8.24631-2.64894-10.23193-.85542-.98356-.85548-.98367-.90278 2.02106-.0726 4.61742-1.69255 10.46632-2.23501 8.06979-.57581-2.54381-1.97248-3.82778-4.52169-4.15788-2.73936-.35471-14.75982-6.35783-14.75982-7.37113 0-1.10359 12.05746-9.1639 13.10979-8.76381 1.61937.61568 3.59892-1.33972 4.9873-1.10484 10.70637 1.81127 8.72359 2.86005 10.24072 7.45898 2.61824 7.93678 1.97125 7.76286 3.49281 6.36033.68343-.62997 1.40838-1.43451 1.2423-1.67173-.53302-.76137-2.40436-9.00114-3.22565-11.97395-.29653-1.07334-.5462-1.39141-5.66373-2.35747-5.37883-1.01539-5.31741-1.29921-5.82084-2.38125-.94749-2.03652-3.94796-3.02072-5.62601-1.84537-.58119.40709-.64941.39042-1.44746-.35347-.46078-.42952-2.36925-1.94742-4.24056-3.37292-3.40238-2.59181-3.40205-2.59192-3.24373-3.54913.087-.52646.15923-1.21199.16123-1.52394.003-.48788.41489-.70137 2.9502-1.52652 3.0887-1.00525 5.77008-1.56323 8.78138-1.70946zm-15.19494 7.64294c1.64642.008 9.93262 6.67155 10.08052 8.10597.15836 1.53591-11.7444 10.01717-13.15578 9.3741-2.38522-1.08678-5.06649.92391-4.76767 3.57498.11652 1.03378.0422 1.20984-.89917 2.12907-.56445.55117-1.88453 2.04821-2.93367 3.32693-1.15216 1.40428-2.10254 2.32492-2.39934 2.32492-1.63175 0-2.63775 2.87065-1.50895 4.30568 1.08685 1.3817.76681 15.28982-.36587 15.8998-3.1564 1.69984-1.27177 6.76637 2.25826 6.07095 1.18128-.23272 4.98678 4.55539 4.98678 6.27455 0 1.00907.1721 1.46516.92604 2.45257 1.13399 1.48513 1.21007.91384-.63045 4.74803-.85621 1.78367-1.82487 3.98735-2.15233 4.89686-.70035 1.94524-.67479 1.93642-1.89756.66146-1.99994-2.08531-4.52965-6.3737-5.65753-9.59115-.60287-1.71979-.603-1.71958-.6227 1.26814-.031 4.7082.82355 7.89869 3.57859 13.36094 1.17313 2.32591 1.17329 2.32591.7891 3.83646-.21131.8308-.42254 1.86769-.46974 2.30425-.25419 2.35249-8.6561-14.78016-10.16475-20.72742-1.32414-5.21986.18325-16.62482 4.55166-34.4382 2.34589-9.56594 16.32698-30.18009 20.45456-30.15889zm55.15581 3.66128c-1.72177.0746-3.27112.98171-3.27112 2.66185 0 .78201-.40851.95182-5.40897 2.24173-2.61135.67361-4.83419 1.36378-4.93924 1.53375-.18735.30314-.53258 1.49842-2.65875 9.21029-1.05717 3.83449-1.05682 3.8347.32711 5.12062 1.70243 1.58186 1.74537 2.15791 3.50263-5.79086 1.58022-7.14797 1.63904-6.59676 10.01645-8.13645 4.297-.78975 8.44494-.42092 6.73757-4.50722-.68953-1.65026-2.58391-2.40834-4.30568-2.33371zm15.428 12.38942c-.25242-.0129-.0364.2388.58446.7612.78964.66444 4.22838 4.55754 6.53087 7.39386.59066.72761 1.95269 2.38526 3.02668 3.6835 2.13513 2.58092 2.36305 2.59369 1.72755.0982-1.31362-5.15833-4.80282-9.07203-10.06347-11.2882-.99584-.41952-1.58337-.63715-1.80609-.64854zm-72.2421 8.30647c.66702.0344 1.72317.52754 5.10304 2.1053 2.7039 1.26221 5.69118 2.64989 6.63836 3.08405 1.72214.78939 1.7219.78933 2.04638 2.33629.41105 1.95969.4201 1.9547-1.71462.9803-8.53405-3.89539-13.55466-2.97789-18.36322 3.35484-1.52254 2.00514-1.54941 2.14302-.41806 2.14302.85098 0 .87632.0349 1.3379 1.82676 1.10222 4.27869 3.92592 7.29966 8.34936 8.93279 1.811.66862 1.81096.66835.18965 2.82567-.89173 1.18652-2.23584 3.00661-2.98741 4.04419-1.15587 1.59571-1.56065 1.95257-2.62465 2.31511-.69184.23573-1.35255.4284-1.46812.4284-.53051 0-5.25188-6.21635-5.25188-6.91483 0-1.00959-.37343-1.88607-1.17047-2.74608-.99903-1.07802-1.08003-14.36757-.0951-15.61972.37842-.48108.60336-1.1629.63356-1.92133.0748-1.88029 5.22009-6.97491 6.83369-6.76651.61074.0789 1.52221-.0201 2.1115-.22945.32404-.1151.54688-.19443.85008-.1788zm2.34507 11.92692c.37393.006.39175.51723.33952 1.87844-.21618 5.63012 7.31589 6.57552 8.41964 1.05679.18065-.90327 1.9362-.47228 1.9513.47904.0186 1.17384-2.44464 3.94036-4.14135 4.65139-5.60434 2.34861-12.73999-4.99577-7.49102-7.71012.43257-.22373.72605-.35886.92191-.35554zm69.26968.4129c.13784.007.33455.0747.60823.1695 3.04614 1.0546 2.1341 5.58137-1.48208 7.35614-4.298 2.1094-8.68825.0879-10.14512-4.67104-.13154-.4297.0385-.61347.90434-.97823 1.17152-.4935 1.14523-.51572 1.43609 1.22421.8784 5.25461 8.91648 3.96428 8.47286-1.36012-.11425-1.37128-.1466-1.75708.20568-1.74046zm-35.48311 2.79931c6.30793-.11392 12.71153.66157 16.76435 2.37092 12.52338 5.28196 26.07914 26.7912 30.43122 48.28542 2.03429 10.04701-1.20329 15.80534-8.88783 15.80834-5.82631.003-8.12724-2.35561-16.99483-17.41393-3.76064-6.38607-5.73253-8.05513-12.62714-10.6903-6.31544-2.41382-8.03877-8.07011-3.05614-10.0304 6.45038-2.53775 10.8694-6.48957 12.29796-10.99777.33588-1.05996 3.18134-.33396 9.6144 2.45411 2.88448 1.25012 2.5881.78081-2.75436-4.36614-10.37411-9.99447-14.39614-11.79178-25.63254-11.45357-9.12939.27478-12.52515 2.13369-23.73602 12.99301-4.39887 4.26092-4.36132 4.17-1.15083 2.78588 2.00532-.86454 9.05885-3.4184 9.44128-3.4184.0548 0 .10014.26789.10025.59531.001 3.23408 4.9571 8.08756 10.93784 10.71098 3.73675 1.63911 3.61511 1.4808 3.61011 4.6762-.006 4.03701.0983 3.92874-6.02909 6.26938-6.21872 2.37554-8.64517 4.4878-12.27573 10.68875-7.43552 12.69972-8.89838 14.64136-12.29021 16.31115-3.89003 1.91506-8.28724 1.11216-11.19725-2.04483-9.07209-9.84205 9.79076-51.77918 27.24278-60.56788 3.67134-1.84886 9.88385-2.85231 16.19178-2.96623zm-4.87929 13.4736c.14964.006.46879.30726.96583.90485 1.28179 1.54107 1.20388 4.19101-.15658 5.32009-.45673.37902-1.48654.55666-2.39675.41289-.72712-.11484-.72675-.11519.076-.79064 1.44179-1.21319 2.03994-3.26845 1.50636-5.17643-.12643-.45211-.12686-.67621.005-.67076zm11.4701.0176c.13927.004.20348.18975.15762.58704-.19831 1.71761.2736 3.33839 1.40818 4.83743 1.04464 1.38019 1.0446 1.38028-.0506 1.38028-2.16939 0-3.96073-2.85618-3.01222-4.80281.61235-1.25673 1.21189-2.01017 1.49706-2.00194zm-29.45711 13.22141c-.19794-.005-.40247.0114-.61185.0507-2.30288.43202-2.70738 4.0158-.55553 4.92218 1.44197.60738 3.61057-.79401 3.60857-2.33165-.002-1.5204-1.05566-2.60448-2.44119-2.64118zm48.06838.4098c-2.20979 0-3.09062 2.67698-1.42782 4.33978.70537.70533.94035.78859 1.87275.66353 3.34448-.44859 2.93945-5.00331-.44493-5.00331zm-56.45754 5.37693c-1.78879.0343-3.5128 2.51923-2.11408 4.29741.4293.54577.77873.69712 1.60817.69712 2.2634 0 3.52118-2.81332 1.95699-4.37751-.44392-.44392-.95021-.62664-1.45108-.61702zm64.48237.22014c-1.03239.005-2.02747.6279-2.2102 1.86397-.16049 1.08567.60557 2.52534 1.54409 2.90267 2.05077.82449 3.69322-.72559 3.10059-2.92644-.33213-1.23342-1.40208-1.84554-2.43448-1.8402zm-58.38041 6.65696c-.31492.003-.68382.12371-1.22629.35037-2.28243.95366-2.49632 4.31775-.30024 4.72115 2.63242.48355 4.64696-2.81954 2.72697-4.47104-.47985-.41276-.79555-.60416-1.20044-.60048zm52.65621.45423c-1.10444-.0477-2.15387.57023-2.15387 1.76217 0 1.34619.42174 2.19317 1.38286 2.77916 2.27174 1.38508 4.24942-.72469 2.98018-3.17913-.4577-.88511-1.35015-1.32506-2.20917-1.3622zm-26.62783 4.96249c9.87211.0279 13.34861 2.22784 18.14825 11.48612 1.39564 2.69214 3.34279 6.23536 4.32687 7.87394 2.04694 3.40838 2.04618 3.51058-.0331 4.30206-3.61195 1.37491-4.0952 1.0615-7.76386-5.04258-.91602-1.52411-1.31199-1.98997-1.40509-1.65158-.0713.25918-.27574 1.12613-.45372 1.9265-.94088 4.231-4.22244 6.58986-9.77666 7.02696-1.09141.0859-2.28203.18204-2.64583.21394-6.82264.59826-12.1182-2.30314-13.21625-7.2409-.58328-2.62296-.53681-2.56002-1.14308-1.55805-4.61098 7.62058-4.9231 7.85269-8.59534 6.39186-2.20014-.87522-2.20152-.66081.0212-4.35942 1.07503-1.78887 2.88386-5.03845 4.0194-7.22127 5.11988-9.84181 8.67741-12.17548 18.51721-12.14758zm63.27004 4.87154c.24219 0 5.65392 2.78526 5.65392 2.9099 0 .0788-.6846.52559-1.52135.99322-.83674.46763-2.28491 1.28729-3.21841 1.82108-1.13465.64878-1.64418.83157-1.53686.5519.0883-.23008.24379-1.73621.34572-3.34708s.22668-2.92902.27698-2.92902zm-126.74162.14883c.43908-.0157.37655.50605.39068 1.63711.0123.98226.10786 2.47055.21239 3.30729h.00051c.23634 1.89187.31472 1.89577-3.23597-.1664-3.44591-2.00129-3.44099-1.81969-.0972-3.53105 1.5645-.80071 2.34214-1.23314 2.72955-1.24695zm63.55685 1.71566c-2.80144.0229-5.65937.55725-8.01295 1.59835-1.58854.70268-1.48534.77438 1.49242 1.04231 2.88193.2593 13.41979.0897 14.76964-.23771.92604-.22465.92601-.22443-.57464-.93276-2.12809-1.00448-4.87303-1.49308-7.67447-1.47019zm56.54745 1.19837c.068-.011.0332.44907-.032 1.30276-.67763 8.87267-2.16974 14.00279-5.55108 19.08463-2.8684 4.31094-6.97559 8.17487-6.99389 6.57996-.26755-1.32064-.1072-1.65924-.50333-3.54139-.61753-2.9341-.37682-2.11089 2.4753-5.15937 4.46295-4.7702 7.60713-9.55209 9.82679-16.17008.47837-1.42627.69877-2.0836.77825-2.09651zm-113.14865.93173c.12028-.008.36838.63911.80977 1.95853.82669 2.47113 2.93035 6.94566 4.24212 9.02271 1.28494 2.03456 1.28589 1.66119-.0134 4.14083-1.28997 2.46177-1.06081 2.44133-2.07015.18397-1.61981-3.62263-2.78584-8.85109-3.02359-13.5599-.0582-1.15184-.0577-1.73836.0553-1.74614zm9.47591 19.58433c.31742-.0191.78993.38822 1.95337 1.39062 5.33803 4.5992 5.31196 4.6816-2.27376 7.17062-5.26317 1.72699-4.9416 1.72182-4.32119.0708.63964-1.7022 3.21865-6.84458 4.03645-8.04808.24339-.35819.38795-.57087.60513-.58395zm82.71485 5.57331c.0226-.00061.0378.004.0455.0139.25153.33427 1.88316 5.34405 2.5306 7.77007 1.09084 4.08752 1.51608 3.87721-2.50476 1.77146-9.09706-4.76422-8.45701-3.84132-5.00383-6.41976 1.15021-.85884 4.47362-3.12341 4.93252-3.13572zm-69.15392.22841c.33534-.004.87545.23942 1.9389.70745 4.92167 2.16601 13.96966 4.73658 18.52807 5.26376 1.53964.17806 6.43013 10.66824 6.32467 10.64844s-1.32281-.13933-2.70526-.2651c-9.28223-.84451-20.81804-4.47308-27.65774-8.70024-.40897-.14913-.46246-.18386.0992-1.34772.71694-1.48557.95939-2.06689 2.31872-4.61729.61046-1.14537.66331-1.68277 1.15342-1.6893zm61.31925 10.51925c.0259.0187-10.91185 5.0505-18.31516 5.74125-1.01865.095-2.06044.23089-2.3151.30179-.61702.17171-.72911.4713 1.603-4.28863 1.13638-2.31939 2.21848-4.59446 2.40451-5.0555.3011-.74621.48832-.85777 1.70428-1.01854 2.1648-.28623 7.26548-2.14277 7.37509-2.08583.0738.0383 5.72521 5.08583 7.54338 6.40546zm-32.20578-3.40651c0-.0105 8.91308.15489 8.73641.38241-.35372.45553-3.93682 9.21174-4.22299 9.50794-.36127.37394-4.51342-9.74129-4.51342-9.89035z"/><g transform="translate(-1.058333 -.264583)"><path d="m-376.65552-825.85181h4.535608v5.222821h-4.535608z" transform="rotate(90)"/><g stroke-linecap="square"><circle cx="811.53241" cy="-374.38782" r="12.245516" stroke-width=".645581"/><g transform="translate(-.000005 .000011)"><path d="m722.21613 496.45606 16.31107.94977-.55717 10.25887-16.13296-.0703z" stroke-width="11.4175" transform="matrix(.5 -.8660254 .8660254 .5 0 0)"/><g stroke-width="4.96055"><g transform="matrix(.92533699 0 0 .92533699 59.586143 -28.210634)"><path d="m810.16797-364.27866h4.90157v5.64424h-4.90157z"/><path d="m810.16797-389.5842h4.90157v5.64424h-4.90157z"/></g><g transform="matrix(.80136534 .4626685 -.4626685 .80136534 -12.760766 -450.56268)"><path d="m810.16797-364.27866h4.90157v5.64424h-4.90157z"/><path d="m810.16797-389.5842h4.90157v5.64424h-4.90157z"/></g><g transform="matrix(.4626685 .80136534 -.80136534 .4626685 135.761 -852.50373)"><path d="m810.16797-364.27866h4.90157v5.64424h-4.90157z"/><path d="m810.16797-389.5842h4.90157v5.64424h-4.90157z"/></g><g transform="matrix(-.4626685 .80136534 -.80136534 -.4626685 887.70719 -1198.6808)"><path d="m810.16797-364.27866h4.90157v5.64424h-4.90157z"/><path d="m810.16797-389.5842h4.90157v5.64424h-4.90157z"/></g></g></g></g><path d="m-892.26917-95.85627h4.535608v5.222821h-4.535608z" transform="matrix(-.8660254 .5 -.5 -.8660254 0 0)"/></g></g><circle cx="810.47406" cy="-374.6524" fill="none" r="6.171324" stroke="#b07236" stroke-linecap="square" stroke-width="3.48667"/></g><g fill="#32271c" stroke-linecap="square"><circle cx="723.66541" cy="-493.97702" r="5.370875" stroke-width=".764117"/><circle cx="704.80957" cy="-480.74048" r="5.370875" stroke-width=".764117"/><circle cx="695.29279" cy="-469.6218" r="3.392132" stroke-width=".4826"/><circle cx="695.38702" cy="-449.92859" r="4.051713" stroke-width=".576439"/><circle cx="765.1532" cy="-494.30899" r="4.438087" stroke-width=".631409"/></g></g><g><path d="m991.04028-512.46742.00001 4.66017h-69.73477v-4.3434h-26.50897l-.00001 5.19348-19.17247 6.61924 10.03815 29.07626 9.13432-3.1533.00001 65.76653h7.67136l.00001 22.51645h104.00758v-25.71471h11.3073v-61.06862l5.2462 2.15955 11.7084-28.44477-16.9546-6.97838-.8927-4.87062z" fill="#e6e6e6" stroke-linecap="square" stroke-width=".242874"/><g transform="translate(213.5361 -.285789)"><path d="m803.95481-410.64183v8.19536h8.4615v-8.19536zm-128.67897.50229c-2.45345 0-4.42867 1.97522-4.42867 4.42867 0 2.45346 1.97522 4.42867 4.42867 4.42867h3.39204c2.45345 0 4.42867-1.97521 4.42867-4.42867 0-2.45345-1.97522-4.42867-4.42867-4.42867zm121.64529 2.07326c-2.81886 0-5.08806 2.2692-5.08806 5.08806v9.04544c0 .19117.0107.38029.031.56586h-2.59209c-3.69686 0-6.67297 2.97611-6.67297 6.67298v1.72961c0 3.69687 2.97611 6.67349 6.67297 6.67349h3.23753c3.69687 0 6.6735-2.97662 6.6735-6.67349v-1.72961c0-.87438-.16661-1.70882-.46974-2.47272 1.92964-.72186 3.29644-2.57853 3.29644-4.76612v-9.04544c0-2.81886-2.26972-5.08806-5.08858-5.08806zm-108.3598 1.13068c-2.71445 0-4.89944 4.58077-4.89944 10.27069 0 5.68993 2.18499 10.27069 4.89944 10.27069 2.71446 0 4.89996-4.58076 4.89996-10.27069 0-5.68992-2.1855-10.27069-4.89996-10.27069zm14.76499 16.93333c-2.74075-.0684-6.69179 1.90344-10.09034 5.2741-4.53139 4.49422-6.31402 9.72273-3.99665 11.7228 2.30978 1.99352 7.79519.005 12.31811-4.45813-.88668 3.31068 4.62959 8.30676 13.51959 11.90522 9.00866 3.64649 18.32544 4.58056 22.22913 2.41794 4.30836 1.9022 10.63839 2.9362 18.04386 2.66754 15.12536-.54873 28.83965-6.31816 30.74955-12.93565 1.90989-6.61749-8.729-11.5031-23.85436-10.95437-13.46984.48867-25.82069 5.11766-29.71188 10.79883-1.97202-1.24132-4.32503-2.44029-6.9789-3.51452-8.91573-3.60888-18.13331-4.56069-22.10667-2.48357 3.12744-3.93278 4.12071-7.96749 2.15026-9.66814-.57934-.50002-1.35811-.74925-2.2717-.77205z" fill="#2a7a2a" stroke-linecap="square" stroke-width=".940866"/><g fill="#192718" transform="translate(-.000005 .000011)"><path d="m789.94171-517.61877c-2.47631.005-4.97869 1.27473-10.29446 3.81476-6.93786 3.3151-6.93786 3.315-7.9375 2.91972-4.73655-1.87295-12.87342-2.21833-21.10827-.89556-5.37971.86415-10.13512.96793-14.68438.3204-8.16493-1.16221-9.38183-1.26447-13.22917-1.11156-3.85948.15338-6.04622.50325-9.30692 1.48828-1.76646.53363-1.76647.53355-8.20209-2.62878-10.2316-5.0276-9.93271-5.01608-18.87119-.74001-25.74139 12.3144-24.47016 11.59398-25.98808 14.72779-1.73937 3.591-1.65056 3.91405 6.25543 22.76812 4.29952 10.25341 6.17776 11.87037 11.60084 9.9844 1.05264-.36607 1.9141-.62506 1.9141-.57516s-.41956 1.79434-.93225 3.87625c-5.15082 20.91618-5.17558 28.75602-.1297 40.89311 1.03953 2.50039 1.0081 6.32627-.0605 7.36027-.0375.0362-2.86618 1.64026-6.28592 3.56465-10.51799 5.91877-10.49701 5.25604-.34881 11.03601 3.32056 1.89124 6.53433 3.68951 7.14168 3.99614.98354.49657 1.15172.72416 1.53841 2.0836 1.06291 3.73672 3.11869 8.65929 4.78317 11.45253.71199 1.19482.71218 1.19482-1.14825 5.82083-4.0511 10.07318-3.82064 10.23717 9.1152 6.48694 2.93688-.85143 2.55543-.92117 4.74648.86972 8.38501 6.8536 21.85448 11.72645 35.95233 13.00644 4.62377.4198 4.40563.33983 5.11597 1.86448.33982.72939 1.00849 1.74088 1.48621 2.24741 1.46405 1.55235 2.47134 1.13472 4.02456-1.66863 1.23118-2.22211.9464-2.06967 4.28243-2.29288 8.00596-.53566 17.61428-2.95695 25.13748-6.3345 3.26935-1.46779 3.26906-1.46764 6.60735.31058 7.8005 4.15514 8.0248 4.00812 6.77116-4.43953-.55377-3.73156-.65976-3.4306 1.9389-5.50715 6.71966-5.36956 7.82352-6.32093 9.14312-7.93079.69623-.84938 3.25698-9.87969 3.62081-10.67856.14305-.31409.17305-.32176.7014-1.99095.90462-2.85792.94454-2.9015 4.62608-4.95732 13.71781-7.66024 13.8151-7.73597 11.80651-9.23923-.78011-.58384-7.24811-4.41058-7.45484-4.41058-.0479 0-1.42668-.76897-3.0639-1.70894s-3.0722-1.74364-3.18895-1.78594c-1.30934-.47434-1.34544-4.74009-.0646-7.63106 5.20193-11.74117 5.19178-18.42681-.0605-39.67819-.65031-2.63127-1.18235-4.8328-1.18235-4.8917v-.00051-.00052c.00005-.0002.00044-.001.00051-.002v-.00052l.00052-.00051.00052-.00052.00051-.00052.00052-.00051c.0462-.0343.65234.20287 1.38648.54467 2.80968 1.30809 6.40646.63417 8.33489-1.56218 1.10674-1.2605 1.42173-1.9038 4.03541-8.23671 1.20117-2.91042 3.30443-7.93148 4.67362-11.15797 4.82118-11.36108 4.24151-12.46287-10.21126-19.41174-4.44916-2.13915-10.23255-4.92537-12.85193-6.19187-5.2106-2.51937-7.66054-3.77931-10.13685-3.77445zm-94.95596 6.18102c.40468.002.30794.30604-.17363.86558-2.72679 3.16831-8.3908 14.82635-14.3428 29.52171-1.33869 3.30516-2.6448 6.12637-3.02204 6.52777-2.00157 2.12982-2.42337 1.38445-10.60865-18.74252-1.74347-4.28706-2.24721-3.85081 13.27412-11.51041 9.52959-4.70274 13.83882-6.66756 14.873-6.66213zm95.63395.0791c.74329.0402 2.50121.72942 5.05809 1.99057 1.88898.93171 7.4619 3.62385 12.38426 5.98258 10.80856 5.17934 11.1988 5.43665 11.1988 7.38405 0 .7498-8.87872 21.7255-9.31261 22.00072-1.50039.95168-2.64443-.31975-4.55786-5.06532-5.66255-14.04387-9.65873-22.71695-13.21366-28.67835-1.1186-1.87582-1.97666-3.46745-1.90686-3.53725.0608-.0608.17832-.0863.34984-.077zm-7.61348 4.86843c.20363-.004.32461.15536.55242.45631.73715.97383 2.74254 4.86642 3.7977 7.37112 1.23673 2.93569 1.26492 2.94822-2.41484-1.10536-5.14585-5.6686-4.80242-5.02547-3.22151-6.03994.71873-.46121 1.05544-.67704 1.28623-.68213zm-80.42145.26149c.014-.001.0268-.00001.0388.003 2.23666.5828 2.29821 1.30841.29765 3.51348-2.16653 2.388-6.16241 6.37744-6.16241 6.15259 0-1.43508 4.94301-9.60407 5.826-9.66917zm19.66133.20877c3.01131-.14623 6.35232.11896 10.76058.76016 9.02304 1.31245 12.37342 1.28772 19.31459-.14366 5.2584-1.08437 13.37134-.70996 17.95549.82889 8.8478 2.97011 24.66656 23.29903 27.78177 35.70273 6.49477 25.85993 6.7296 31.53077 1.76578 42.65321-3.72895 8.35547-7.20025 14.34149-7.54528 13.01109-.90806-3.50149-1.51716-5.4868-2.68304-8.74417-1.55721-4.35072-1.59618-3.39289.29043-7.21248 2.429-4.91769 3.01173-7.43205 3.01118-12.99249-.00055-5.46852-.33302-7.43086-.87436-5.15937-1.09028 4.57486-2.53517 7.99195-5.11804 12.10469-1.66594 2.6527-1.36691 2.67844-3.10678-.26407-2.16367-3.65923-5.12986-8.2615-6.89261-10.69444-1.59179-2.19699-1.83233-2.73368-1.22731-2.73368 3.20467 0 9.00963-6.00395 9.59786-9.92653.17594-1.17324.18911-1.18597 1.21543-1.18597 1.33025 0 1.17499-.33559-1.42007-3.06751-3.08789-3.25074-6.1565-4.4186-9.86399-3.7543-.98132.17584-.9332.12771.66145-.66145 1.61443-.79899 1.89432-.85112 4.56407-.85112 3.34648 0 3.31463.0413 1.04748-1.36735-7.42969-4.61637-12.70987-3.84092-19.52956 2.86804-2.87346 2.8268-5.01001-.27577-4.99091-7.2471.008-3.10081.008-3.10108-.57102-2.55695-1.88935 1.77495-3.00964 5.45729-3.00964 9.8919 0 3.19686 0 3.19672-4.82865 3.78633-5.85279.71467-6.80989.71882-12.36927.0532-2.40109-.28746-4.43675-.52514-4.52375-.52814s-.10564-1.16602-.0413-2.58485c.1807-3.98655-.92194-8.24631-2.64894-10.23193-.85542-.98356-.85548-.98367-.90278 2.02106-.0726 4.61742-1.69255 10.46632-2.23501 8.06979-.57581-2.54381-1.97248-3.82778-4.52169-4.15788-2.73936-.35471-14.75982-6.35783-14.75982-7.37113 0-1.10359 12.05746-9.1639 13.10979-8.76381 1.61937.61568 3.59892-1.33972 4.9873-1.10484 10.70637 1.81127 8.72359 2.86005 10.24072 7.45898 2.61824 7.93678 1.97125 7.76286 3.49281 6.36033.68343-.62997 1.40838-1.43451 1.2423-1.67173-.53302-.76137-2.40436-9.00114-3.22565-11.97395-.29653-1.07334-.5462-1.39141-5.66373-2.35747-5.37883-1.01539-5.31741-1.29921-5.82084-2.38125-.94749-2.03652-3.94796-3.02072-5.62601-1.84537-.58119.40709-.64941.39042-1.44746-.35347-.46078-.42952-2.36925-1.94742-4.24056-3.37292-3.40238-2.59181-3.40205-2.59192-3.24373-3.54913.087-.52646.15923-1.21199.16123-1.52394.003-.48788.41489-.70137 2.9502-1.52652 3.0887-1.00525 5.77008-1.56323 8.78138-1.70946zm-15.19494 7.64294c1.64642.008 9.93262 6.67155 10.08052 8.10597.15836 1.53591-11.7444 10.01717-13.15578 9.3741-2.38522-1.08678-5.06649.92391-4.76767 3.57498.11652 1.03378.0422 1.20984-.89917 2.12907-.56445.55117-1.88453 2.04821-2.93367 3.32693-1.15216 1.40428-2.10254 2.32492-2.39934 2.32492-1.63175 0-2.63775 2.87065-1.50895 4.30568 1.08685 1.3817.76681 15.28982-.36587 15.8998-3.1564 1.69984-1.27177 6.76637 2.25826 6.07095 1.18128-.23272 4.98678 4.55539 4.98678 6.27455 0 1.00907.1721 1.46516.92604 2.45257 1.13399 1.48513 1.21007.91384-.63045 4.74803-.85621 1.78367-1.82487 3.98735-2.15233 4.89686-.70035 1.94524-.67479 1.93642-1.89756.66146-1.99994-2.08531-4.52965-6.3737-5.65753-9.59115-.60287-1.71979-.603-1.71958-.6227 1.26814-.031 4.7082.82355 7.89869 3.57859 13.36094 1.17313 2.32591 1.17329 2.32591.7891 3.83646-.21131.8308-.42254 1.86769-.46974 2.30425-.25419 2.35249-8.6561-14.78016-10.16475-20.72742-1.32414-5.21986.18325-16.62482 4.55166-34.4382 2.34589-9.56594 16.32698-30.18009 20.45456-30.15889zm55.15581 3.66128c-1.72177.0746-3.27112.98171-3.27112 2.66185 0 .78201-.40851.95182-5.40897 2.24173-2.61135.67361-4.83419 1.36378-4.93924 1.53375-.18735.30314-.53258 1.49842-2.65875 9.21029-1.05717 3.83449-1.05682 3.8347.32711 5.12062 1.70243 1.58186 1.74537 2.15791 3.50263-5.79086 1.58022-7.14797 1.63904-6.59676 10.01645-8.13645 4.297-.78975 8.44494-.42092 6.73757-4.50722-.68953-1.65026-2.58391-2.40834-4.30568-2.33371zm15.428 12.38942c-.25242-.0129-.0364.2388.58446.7612.78964.66444 4.22838 4.55754 6.53087 7.39386.59066.72761 1.95269 2.38526 3.02668 3.6835 2.13513 2.58092 2.36305 2.59369 1.72755.0982-1.31362-5.15833-4.80282-9.07203-10.06347-11.2882-.99584-.41952-1.58337-.63715-1.80609-.64854zm-72.2421 8.30647c.66702.0344 1.72317.52754 5.10304 2.1053 2.7039 1.26221 5.69118 2.64989 6.63836 3.08405 1.72214.78939 1.7219.78933 2.04638 2.33629.41105 1.95969.4201 1.9547-1.71462.9803-8.53405-3.89539-13.55466-2.97789-18.36322 3.35484-1.52254 2.00514-1.54941 2.14302-.41806 2.14302.85098 0 .87632.0349 1.3379 1.82676 1.10222 4.27869 3.92592 7.29966 8.34936 8.93279 1.811.66862 1.81096.66835.18965 2.82567-.89173 1.18652-2.23584 3.00661-2.98741 4.04419-1.15587 1.59571-1.56065 1.95257-2.62465 2.31511-.69184.23573-1.35255.4284-1.46812.4284-.53051 0-5.25188-6.21635-5.25188-6.91483 0-1.00959-.37343-1.88607-1.17047-2.74608-.99903-1.07802-1.08003-14.36757-.0951-15.61972.37842-.48108.60336-1.1629.63356-1.92133.0748-1.88029 5.22009-6.97491 6.83369-6.76651.61074.0789 1.52221-.0201 2.1115-.22945.32404-.1151.54688-.19443.85008-.1788zm2.34507 11.92692c.37393.006.39175.51723.33952 1.87844-.21618 5.63012 7.31589 6.57552 8.41964 1.05679.18065-.90327 1.9362-.47228 1.9513.47904.0186 1.17384-2.44464 3.94036-4.14135 4.65139-5.60434 2.34861-12.73999-4.99577-7.49102-7.71012.43257-.22373.72605-.35886.92191-.35554zm69.26968.4129c.13784.007.33455.0747.60823.1695 3.04614 1.0546 2.1341 5.58137-1.48208 7.35614-4.298 2.1094-8.68825.0879-10.14512-4.67104-.13154-.4297.0385-.61347.90434-.97823 1.17152-.4935 1.14523-.51572 1.43609 1.22421.8784 5.25461 8.91648 3.96428 8.47286-1.36012-.11425-1.37128-.1466-1.75708.20568-1.74046zm-35.48311 2.79931c6.30793-.11392 12.71153.66157 16.76435 2.37092 12.52338 5.28196 26.07914 26.7912 30.43122 48.28542 2.03429 10.04701-1.20329 15.80534-8.88783 15.80834-5.82631.003-8.12724-2.35561-16.99483-17.41393-3.76064-6.38607-5.73253-8.05513-12.62714-10.6903-6.31544-2.41382-8.03877-8.07011-3.05614-10.0304 6.45038-2.53775 10.8694-6.48957 12.29796-10.99777.33588-1.05996 3.18134-.33396 9.6144 2.45411 2.88448 1.25012 2.5881.78081-2.75436-4.36614-10.37411-9.99447-14.39614-11.79178-25.63254-11.45357-9.12939.27478-12.52515 2.13369-23.73602 12.99301-4.39887 4.26092-4.36132 4.17-1.15083 2.78588 2.00532-.86454 9.05885-3.4184 9.44128-3.4184.0548 0 .10014.26789.10025.59531.001 3.23408 4.9571 8.08756 10.93784 10.71098 3.73675 1.63911 3.61511 1.4808 3.61011 4.6762-.006 4.03701.0983 3.92874-6.02909 6.26938-6.21872 2.37554-8.64517 4.4878-12.27573 10.68875-7.43552 12.69972-8.89838 14.64136-12.29021 16.31115-3.89003 1.91506-8.28724 1.11216-11.19725-2.04483-9.07209-9.84205 9.79076-51.77918 27.24278-60.56788 3.67134-1.84886 9.88385-2.85231 16.19178-2.96623zm-4.87929 13.4736c.14964.006.46879.30726.96583.90485 1.28179 1.54107 1.20388 4.19101-.15658 5.32009-.45673.37902-1.48654.55666-2.39675.41289-.72712-.11484-.72675-.11519.076-.79064 1.44179-1.21319 2.03994-3.26845 1.50636-5.17643-.12643-.45211-.12686-.67621.005-.67076zm11.4701.0176c.13927.004.20348.18975.15762.58704-.19831 1.71761.2736 3.33839 1.40818 4.83743 1.04464 1.38019 1.0446 1.38028-.0506 1.38028-2.16939 0-3.96073-2.85618-3.01222-4.80281.61235-1.25673 1.21189-2.01017 1.49706-2.00194zm-29.45711 13.22141c-.19794-.005-.40247.0114-.61185.0507-2.30288.43202-2.70738 4.0158-.55553 4.92218 1.44197.60738 3.61057-.79401 3.60857-2.33165-.002-1.5204-1.05566-2.60448-2.44119-2.64118zm48.06838.4098c-2.20979 0-3.09062 2.67698-1.42782 4.33978.70537.70533.94035.78859 1.87275.66353 3.34448-.44859 2.93945-5.00331-.44493-5.00331zm-56.45754 5.37693c-1.78879.0343-3.5128 2.51923-2.11408 4.29741.4293.54577.77873.69712 1.60817.69712 2.2634 0 3.52118-2.81332 1.95699-4.37751-.44392-.44392-.95021-.62664-1.45108-.61702zm64.48237.22014c-1.03239.005-2.02747.6279-2.2102 1.86397-.16049 1.08567.60557 2.52534 1.54409 2.90267 2.05077.82449 3.69322-.72559 3.10059-2.92644-.33213-1.23342-1.40208-1.84554-2.43448-1.8402zm-58.38041 6.65696c-.31492.003-.68382.12371-1.22629.35037-2.28243.95366-2.49632 4.31775-.30024 4.72115 2.63242.48355 4.64696-2.81954 2.72697-4.47104-.47985-.41276-.79555-.60416-1.20044-.60048zm52.65621.45423c-1.10444-.0477-2.15387.57023-2.15387 1.76217 0 1.34619.42174 2.19317 1.38286 2.77916 2.27174 1.38508 4.24942-.72469 2.98018-3.17913-.4577-.88511-1.35015-1.32506-2.20917-1.3622zm-26.62783 4.96249c9.87211.0279 13.34861 2.22784 18.14825 11.48612 1.39564 2.69214 3.34279 6.23536 4.32687 7.87394 2.04694 3.40838 2.04618 3.51058-.0331 4.30206-3.61195 1.37491-4.0952 1.0615-7.76386-5.04258-.91602-1.52411-1.31199-1.98997-1.40509-1.65158-.0713.25918-.27574 1.12613-.45372 1.9265-.94088 4.231-4.22244 6.58986-9.77666 7.02696-1.09141.0859-2.28203.18204-2.64583.21394-6.82264.59826-12.1182-2.30314-13.21625-7.2409-.58328-2.62296-.53681-2.56002-1.14308-1.55805-4.61098 7.62058-4.9231 7.85269-8.59534 6.39186-2.20014-.87522-2.20152-.66081.0212-4.35942 1.07503-1.78887 2.88386-5.03845 4.0194-7.22127 5.11988-9.84181 8.67741-12.17548 18.51721-12.14758zm63.27004 4.87154c.24219 0 5.65392 2.78526 5.65392 2.9099 0 .0788-.6846.52559-1.52135.99322-.83674.46763-2.28491 1.28729-3.21841 1.82108-1.13465.64878-1.64418.83157-1.53686.5519.0883-.23008.24379-1.73621.34572-3.34708s.22668-2.92902.27698-2.92902zm-126.74162.14883c.43908-.0157.37655.50605.39068 1.63711.0123.98226.10786 2.47055.21239 3.30729h.00051c.23634 1.89187.31472 1.89577-3.23597-.1664-3.44591-2.00129-3.44099-1.81969-.0972-3.53105 1.5645-.80071 2.34214-1.23314 2.72955-1.24695zm63.55685 1.71566c-2.80144.0229-5.65937.55725-8.01295 1.59835-1.58854.70268-1.48534.77438 1.49242 1.04231 2.88193.2593 13.41979.0897 14.76964-.23771.92604-.22465.92601-.22443-.57464-.93276-2.12809-1.00448-4.87303-1.49308-7.67447-1.47019zm56.54745 1.19837c.068-.011.0332.44907-.032 1.30276-.67763 8.87267-2.16974 14.00279-5.55108 19.08463-2.8684 4.31094-6.97559 8.17487-6.99389 6.57996-.26755-1.32064-.1072-1.65924-.50333-3.54139-.61753-2.9341-.37682-2.11089 2.4753-5.15937 4.46295-4.7702 7.60713-9.55209 9.82679-16.17008.47837-1.42627.69877-2.0836.77825-2.09651zm-113.14865.93173c.12028-.008.36838.63911.80977 1.95853.82669 2.47113 2.93035 6.94566 4.24212 9.02271 1.28494 2.03456 1.28589 1.66119-.0134 4.14083-1.28997 2.46177-1.06081 2.44133-2.07015.18397-1.61981-3.62263-2.78584-8.85109-3.02359-13.5599-.0582-1.15184-.0577-1.73836.0553-1.74614zm9.47591 19.58433c.31742-.0191.78993.38822 1.95337 1.39062 5.33803 4.5992 5.31196 4.6816-2.27376 7.17062-5.26317 1.72699-4.9416 1.72182-4.32119.0708.63964-1.7022 3.21865-6.84458 4.03645-8.04808.24339-.35819.38795-.57087.60513-.58395zm82.71485 5.57331c.0226-.00061.0378.004.0455.0139.25153.33427 1.88316 5.34405 2.5306 7.77007 1.09084 4.08752 1.51608 3.87721-2.50476 1.77146-9.09706-4.76422-8.45701-3.84132-5.00383-6.41976 1.15021-.85884 4.47362-3.12341 4.93252-3.13572zm-69.15392.22841c.33534-.004.87545.23942 1.9389.70745 4.92167 2.16601 13.96966 4.73658 18.52807 5.26376 1.53964.17806 6.43013 10.66824 6.32467 10.64844s-1.32281-.13933-2.70526-.2651c-9.28223-.84451-20.81804-4.47308-27.65774-8.70024-.40897-.14913-.46246-.18386.0992-1.34772.71694-1.48557.95939-2.06689 2.31872-4.61729.61046-1.14537.66331-1.68277 1.15342-1.6893zm61.31925 10.51925c.0259.0187-10.91185 5.0505-18.31516 5.74125-1.01865.095-2.06044.23089-2.3151.30179-.61702.17171-.72911.4713 1.603-4.28863 1.13638-2.31939 2.21848-4.59446 2.40451-5.0555.3011-.74621.48832-.85777 1.70428-1.01854 2.1648-.28623 7.26548-2.14277 7.37509-2.08583.0738.0383 5.72521 5.08583 7.54338 6.40546zm-32.20578-3.40651c0-.0105 8.91308.15489 8.73641.38241-.35372.45553-3.93682 9.21174-4.22299 9.50794-.36127.37394-4.51342-9.74129-4.51342-9.89035z"/><g transform="translate(-1.058333 -.264583)"><path d="m-376.65552-825.85181h4.535608v5.222821h-4.535608z" transform="rotate(90)"/><g stroke-linecap="square"><circle cx="811.53241" cy="-374.38782" r="12.245516" stroke-width=".645581"/><g transform="translate(-.000005 .000011)"><path d="m722.21613 496.45606 16.31107.94977-.55717 10.25887-16.13296-.0703z" stroke-width="11.4175" transform="matrix(.5 -.8660254 .8660254 .5 0 0)"/><g stroke-width="4.96055"><g transform="matrix(.92533699 0 0 .92533699 59.586143 -28.210634)"><path d="m810.16797-364.27866h4.90157v5.64424h-4.90157z"/><path d="m810.16797-389.5842h4.90157v5.64424h-4.90157z"/></g><g transform="matrix(.80136534 .4626685 -.4626685 .80136534 -12.760766 -450.56268)"><path d="m810.16797-364.27866h4.90157v5.64424h-4.90157z"/><path d="m810.16797-389.5842h4.90157v5.64424h-4.90157z"/></g><g transform="matrix(.4626685 .80136534 -.80136534 .4626685 135.761 -852.50373)"><path d="m810.16797-364.27866h4.90157v5.64424h-4.90157z"/><path d="m810.16797-389.5842h4.90157v5.64424h-4.90157z"/></g><g transform="matrix(-.4626685 .80136534 -.80136534 -.4626685 887.70719 -1198.6808)"><path d="m810.16797-364.27866h4.90157v5.64424h-4.90157z"/><path d="m810.16797-389.5842h4.90157v5.64424h-4.90157z"/></g></g></g></g><path d="m-892.26917-95.85627h4.535608v5.222821h-4.535608z" transform="matrix(-.8660254 .5 -.5 -.8660254 0 0)"/></g></g><circle cx="810.47406" cy="-374.6524" fill="none" r="6.171324" stroke="#2a7a2a" stroke-linecap="square" stroke-width="3.48667"/></g><g fill="#192718" stroke-linecap="square"><circle cx="934.80291" cy="-491.331187" r="5.370875" stroke-width=".764117"/><circle cx="915.94707" cy="-478.094647" r="5.370875" stroke-width=".764117"/><circle cx="906.43029" cy="-466.975967" r="3.392132" stroke-width=".4826"/><circle cx="906.52452" cy="-447.282757" r="4.051713" stroke-width=".576439"/><circle cx="976.2907" cy="-491.663157" r="4.438087" stroke-width=".631409"/></g></g><g><path d="m991.56945-332.02159.00001 4.66018h-69.73476l-.00001-4.3434-26.50897-.00001-.00001 5.19349-19.17246 6.61923 10.03814 29.07627 9.13432-3.1533.00001 65.76652h7.67136l.00001 22.51646h104.00761v-25.71471h11.3073v-61.06862l5.2462 2.15955 11.7083-28.44477-16.9545-6.97838-.8927-4.87062z" fill="#e2e2e2" stroke-linecap="square" stroke-width=".242874"/><path d="m1018.0201-230.48178v8.19536h8.4615v-8.19536zm-128.67899.50229c-2.45345 0-4.42867 1.97522-4.42867 4.42867 0 2.45346 1.97522 4.42867 4.42867 4.42867h3.39204c2.45345 0 4.42867-1.97521 4.42867-4.42867 0-2.45345-1.97522-4.42867-4.42867-4.42867zm121.64529 2.07326c-2.8189 0-5.0881 2.2692-5.0881 5.08806v9.04544c0 .19117.011.38029.031.56586h-2.592c-3.69691 0-6.67302 2.97611-6.67302 6.67298v1.72961c0 3.69687 2.97611 6.67349 6.67302 6.67349h3.2375c3.6968 0 6.6735-2.97662 6.6735-6.67349v-1.72961c0-.87438-.1666-1.70882-.4698-2.47272 1.9297-.72186 3.2965-2.57853 3.2965-4.76612v-9.04544c0-2.81886-2.2697-5.08806-5.0886-5.08806zm-108.3598 1.13068c-2.71445 0-4.89944 4.58077-4.89944 10.27069 0 5.68993 2.18499 10.27069 4.89944 10.27069 2.71446 0 4.89996-4.58076 4.89996-10.27069 0-5.68992-2.1855-10.27069-4.89996-10.27069zm14.76499 16.93333c-2.74075-.0684-6.69179 1.90344-10.09034 5.2741-4.53139 4.49422-6.31402 9.72273-3.99665 11.7228 2.30978 1.99352 7.79519.005 12.31811-4.45813-.88668 3.31068 4.62959 8.30676 13.51959 11.90522 9.00866 3.64649 18.32544 4.58056 22.22913 2.41794 4.30836 1.9022 10.63839 2.9362 18.04386 2.66754 15.12536-.54873 28.83965-6.31816 30.74951-12.93565 1.9099-6.61749-8.72896-11.5031-23.85432-10.95437-13.46984.48867-25.82069 5.11766-29.71188 10.79883-1.97202-1.24132-4.32503-2.44029-6.9789-3.51452-8.91573-3.60888-18.13331-4.56069-22.10667-2.48357 3.12744-3.93278 4.12071-7.96749 2.15026-9.66814-.57934-.50002-1.35811-.74925-2.2717-.77205z" fill="#2e5988" stroke-linecap="square" stroke-width=".940866"/><g fill="#161d3c"><path d="m1004.007-337.45871c-2.4763.005-4.97872 1.27473-10.29449 3.81476-6.93786 3.3151-6.93786 3.315-7.9375 2.91972-4.73655-1.87295-12.87342-2.21833-21.10827-.89556-5.37971.86415-10.13512.96793-14.68438.3204-8.16493-1.16221-9.38183-1.26447-13.22917-1.11156-3.85948.15338-6.04622.50325-9.30692 1.48828-1.76646.53363-1.76647.53355-8.20209-2.62878-10.2316-5.0276-9.93271-5.01608-18.87119-.74001-25.74139 12.3144-24.47016 11.59398-25.98808 14.72779-1.73937 3.591-1.65056 3.91405 6.25543 22.76812 4.29952 10.25341 6.17776 11.87037 11.60084 9.9844 1.05264-.36607 1.9141-.62506 1.9141-.57516s-.41956 1.79434-.93225 3.87625c-5.15082 20.91618-5.17558 28.75602-.1297 40.89311 1.03953 2.50039 1.0081 6.32627-.0605 7.36027-.0375.0362-2.86618 1.64026-6.28592 3.56465-10.51799 5.91877-10.49701 5.25604-.34881 11.03601 3.32056 1.89124 6.53433 3.68951 7.14168 3.99614.98354.49657 1.15172.72416 1.53841 2.0836 1.06291 3.73672 3.11869 8.65929 4.78317 11.45253.71199 1.19482.71218 1.19482-1.14825 5.82083-4.0511 10.07318-3.82064 10.23717 9.1152 6.48694 2.93688-.85143 2.55543-.92117 4.74648.86972 8.38501 6.8536 21.85448 11.72645 35.95233 13.00644 4.62377.4198 4.40563.33983 5.11597 1.86448.33982.72939 1.00849 1.74088 1.48621 2.24741 1.46405 1.55235 2.47134 1.13472 4.02456-1.66863 1.23118-2.22211.9464-2.06967 4.28243-2.29288 8.00596-.53566 17.61428-2.95695 25.13748-6.3345 3.26935-1.46779 3.26906-1.46764 6.60735.31058 7.80048 4.15514 8.02478 4.00812 6.77118-4.43953-.5538-3.73156-.6598-3.4306 1.9389-5.50715 6.7196-5.36956 7.8235-6.32093 9.1431-7.93079.6962-.84938 3.257-9.87969 3.6208-10.67856.1431-.31409.1731-.32176.7014-1.99095.9046-2.85792.9445-2.9015 4.6261-4.95732 13.7178-7.66024 13.8151-7.73597 11.8065-9.23923-.7801-.58384-7.2481-4.41058-7.4548-4.41058-.048 0-1.4267-.76897-3.0639-1.70894-1.6373-.93997-3.0722-1.74364-3.189-1.78594-1.3093-.47434-1.3454-4.74009-.065-7.63106 5.2019-11.74117 5.1918-18.42681-.06-39.67819-.6503-2.63127-1.1823-4.8328-1.1823-4.8917v-.00051-.00052c0-.0002.0004-.001.0005-.002v-.00052l.0005-.00051.0005-.00052.0005-.00052.0005-.00051c.046-.0343.6524.20287 1.3865.54467 2.8097 1.30809 6.4065.63417 8.3349-1.56218 1.1068-1.2605 1.4217-1.9038 4.0354-8.23671 1.2012-2.91042 3.3045-7.93148 4.6736-11.15797 4.8212-11.36108 4.2415-12.46287-10.2112-19.41174-4.4492-2.13915-10.2326-4.92537-12.852-6.19187-5.2106-2.51937-7.6605-3.77931-10.1368-3.77445zm-94.95599 6.18102c.40468.002.30794.30604-.17363.86558-2.72679 3.16831-8.3908 14.82635-14.3428 29.52171-1.33869 3.30516-2.6448 6.12637-3.02204 6.52777-2.00157 2.12982-2.42337 1.38445-10.60865-18.74252-1.74347-4.28706-2.24721-3.85081 13.27412-11.51041 9.52959-4.70274 13.83882-6.66756 14.873-6.66213zm95.63399.0791c.7432.0402 2.5012.72942 5.058 1.99057 1.889.93171 7.4619 3.62385 12.3843 5.98258 10.8086 5.17934 11.1988 5.43665 11.1988 7.38405 0 .7498-8.8787 21.7255-9.3126 22.00072-1.5004.95168-2.6444-.31975-4.5579-5.06532-5.6625-14.04387-9.6587-22.71695-13.2136-28.67835-1.1186-1.87582-1.9767-3.46745-1.9069-3.53725.061-.0608.1783-.0863.3499-.077zm-7.61352 4.86843c.20363-.004.32461.15536.55242.45631.73715.97383 2.7425 4.86642 3.7977 7.37112 1.2367 2.93569 1.2649 2.94822-2.41484-1.10536-5.14585-5.6686-4.80242-5.02547-3.22151-6.03994.71873-.46121 1.05544-.67704 1.28623-.68213zm-80.42145.26149c.014-.001.0268-.00001.0388.003 2.23666.5828 2.29821 1.30841.29765 3.51348-2.16653 2.388-6.16241 6.37744-6.16241 6.15259 0-1.43508 4.94301-9.60407 5.826-9.66917zm19.66133.20877c3.01131-.14623 6.35232.11896 10.76058.76016 9.02304 1.31245 12.37342 1.28772 19.31459-.14366 5.2584-1.08437 13.37134-.70996 17.95549.82889 8.8478 2.97011 24.66658 23.29903 27.78178 35.70273 6.4948 25.85993 6.7296 31.53077 1.7658 42.65321-3.729 8.35547-7.2003 14.34149-7.5453 13.01109-.9081-3.50149-1.5172-5.4868-2.6831-8.74417-1.5572-4.35072-1.5961-3.39289.2905-7.21248 2.429-4.91769 3.0117-7.43205 3.0112-12.99249-.0006-5.46852-.3331-7.43086-.8744-5.15937-1.0903 4.57486-2.5352 7.99195-5.118 12.10469-1.66598 2.6527-1.36695 2.67844-3.10682-.26407-2.16367-3.65923-5.12986-8.2615-6.89261-10.69444-1.59179-2.19699-1.83233-2.73368-1.22731-2.73368 3.20467 0 9.00963-6.00395 9.59786-9.92653.17594-1.17324.18911-1.18597 1.21538-1.18597 1.3303 0 1.175-.33559-1.42002-3.06751-3.08789-3.25074-6.1565-4.4186-9.86399-3.7543-.98132.17584-.9332.12771.66145-.66145 1.61443-.79899 1.89432-.85112 4.56407-.85112 3.34648 0 3.31463.0413 1.04748-1.36735-7.42969-4.61637-12.70987-3.84092-19.52956 2.86804-2.87346 2.8268-5.01001-.27577-4.99091-7.2471.008-3.10081.008-3.10108-.57102-2.55695-1.88935 1.77495-3.00964 5.45729-3.00964 9.8919 0 3.19686 0 3.19672-4.82865 3.78633-5.85279.71467-6.80989.71882-12.36927.0532-2.40109-.28746-4.43675-.52514-4.52375-.52814s-.10564-1.16602-.0413-2.58485c.1807-3.98655-.92194-8.24631-2.64894-10.23193-.85542-.98356-.85548-.98367-.90278 2.02106-.0726 4.61742-1.69255 10.46632-2.23501 8.06979-.57581-2.54381-1.97248-3.82778-4.52169-4.15788-2.73936-.35471-14.75982-6.35783-14.75982-7.37113 0-1.10359 12.05746-9.1639 13.10979-8.76381 1.61937.61568 3.59892-1.33972 4.9873-1.10484 10.70637 1.81127 8.72359 2.86005 10.24072 7.45898 2.61824 7.93678 1.97125 7.76286 3.49281 6.36033.68343-.62997 1.40838-1.43451 1.2423-1.67173-.53302-.76137-2.40436-9.00114-3.22565-11.97395-.29653-1.07334-.5462-1.39141-5.66373-2.35747-5.37883-1.01539-5.31741-1.29921-5.82084-2.38125-.94749-2.03652-3.94796-3.02072-5.62601-1.84537-.58119.40709-.64941.39042-1.44746-.35347-.46078-.42952-2.36925-1.94742-4.24056-3.37292-3.40238-2.59181-3.40205-2.59192-3.24373-3.54913.087-.52646.15923-1.21199.16123-1.52394.003-.48788.41489-.70137 2.9502-1.52652 3.0887-1.00525 5.77008-1.56323 8.78138-1.70946zm-15.19494 7.64294c1.64642.008 9.93262 6.67155 10.08052 8.10597.15836 1.53591-11.7444 10.01717-13.15578 9.3741-2.38522-1.08678-5.06649.92391-4.76767 3.57498.11652 1.03378.0422 1.20984-.89917 2.12907-.56445.55117-1.88453 2.04821-2.93367 3.32693-1.15216 1.40428-2.10254 2.32492-2.39934 2.32492-1.63175 0-2.63775 2.87065-1.50895 4.30568 1.08685 1.3817.76681 15.28982-.36587 15.8998-3.1564 1.69984-1.27177 6.76637 2.25826 6.07095 1.18128-.23272 4.98678 4.55539 4.98678 6.27455 0 1.00907.1721 1.46516.92604 2.45257 1.13399 1.48513 1.21007.91384-.63045 4.74803-.85621 1.78367-1.82487 3.98735-2.15233 4.89686-.70035 1.94524-.67479 1.93642-1.89756.66146-1.99994-2.08531-4.52965-6.3737-5.65753-9.59115-.60287-1.71979-.603-1.71958-.6227 1.26814-.031 4.7082.82355 7.89869 3.57859 13.36094 1.17313 2.32591 1.17329 2.32591.7891 3.83646-.21131.8308-.42254 1.86769-.46974 2.30425-.25419 2.35249-8.6561-14.78016-10.16475-20.72742-1.32414-5.21986.18325-16.62482 4.55166-34.4382 2.34589-9.56594 16.32698-30.18009 20.45456-30.15889zm55.15581 3.66128c-1.72177.0746-3.27112.98171-3.27112 2.66185 0 .78201-.40851.95182-5.40897 2.24173-2.61135.67361-4.83419 1.36378-4.93924 1.53375-.18735.30314-.53258 1.49842-2.65875 9.21029-1.05717 3.83449-1.05682 3.8347.32711 5.12062 1.70243 1.58186 1.74537 2.15791 3.50263-5.79086 1.58022-7.14797 1.63904-6.59676 10.01645-8.13645 4.297-.78975 8.44494-.42092 6.73757-4.50722-.68953-1.65026-2.58391-2.40834-4.30568-2.33371zm15.428 12.38942c-.25242-.0129-.0364.2388.58446.7612.78964.66444 4.22838 4.55754 6.53087 7.39386.59066.72761 1.95264 2.38526 3.02664 3.6835 2.1352 2.58092 2.3631 2.59369 1.7276.0982-1.3136-5.15833-4.80283-9.07203-10.06348-11.2882-.99584-.41952-1.58337-.63715-1.80609-.64854zm-72.2421 8.30647c.66702.0344 1.72317.52754 5.10304 2.1053 2.7039 1.26221 5.69118 2.64989 6.63836 3.08405 1.72214.78939 1.7219.78933 2.04638 2.33629.41105 1.95969.4201 1.9547-1.71462.9803-8.53405-3.89539-13.55466-2.97789-18.36322 3.35484-1.52254 2.00514-1.54941 2.14302-.41806 2.14302.85098 0 .87632.0349 1.3379 1.82676 1.10222 4.27869 3.92592 7.29966 8.34936 8.93279 1.811.66862 1.81096.66835.18965 2.82567-.89173 1.18652-2.23584 3.00661-2.98741 4.04419-1.15587 1.59571-1.56065 1.95257-2.62465 2.31511-.69184.23573-1.35255.4284-1.46812.4284-.53051 0-5.25188-6.21635-5.25188-6.91483 0-1.00959-.37343-1.88607-1.17047-2.74608-.99903-1.07802-1.08003-14.36757-.0951-15.61972.37842-.48108.60336-1.1629.63356-1.92133.0748-1.88029 5.22009-6.97491 6.83369-6.76651.61074.0789 1.52221-.0201 2.1115-.22945.32404-.1151.54688-.19443.85008-.1788zm2.34507 11.92692c.37393.006.39175.51723.33952 1.87844-.21618 5.63012 7.31589 6.57552 8.41964 1.05679.18065-.90327 1.9362-.47228 1.9513.47904.0186 1.17384-2.44464 3.94036-4.14135 4.65139-5.60434 2.34861-12.73999-4.99577-7.49102-7.71012.43257-.22373.72605-.35886.92191-.35554zm69.26968.4129c.13784.007.33455.0747.60823.1695 3.04614 1.0546 2.1341 5.58137-1.48208 7.35614-4.298 2.1094-8.68825.0879-10.14512-4.67104-.13154-.4297.0385-.61347.90434-.97823 1.17152-.4935 1.14523-.51572 1.43609 1.22421.8784 5.25461 8.91648 3.96428 8.47286-1.36012-.11425-1.37128-.1466-1.75708.20568-1.74046zm-35.48311 2.79931c6.30793-.11392 12.71153.66157 16.76435 2.37092 12.52338 5.28196 26.07914 26.7912 30.43118 48.28542 2.0343 10.04701-1.2033 15.80534-8.88779 15.80834-5.82631.003-8.12724-2.35561-16.99483-17.41393-3.76064-6.38607-5.73253-8.05513-12.62714-10.6903-6.31544-2.41382-8.03877-8.07011-3.05614-10.0304 6.45038-2.53775 10.8694-6.48957 12.29796-10.99777.33588-1.05996 3.18134-.33396 9.6144 2.45411 2.88448 1.25012 2.5881.78081-2.75436-4.36614-10.37411-9.99447-14.39614-11.79178-25.63254-11.45357-9.12939.27478-12.52515 2.13369-23.73602 12.99301-4.39887 4.26092-4.36132 4.17-1.15083 2.78588 2.00532-.86454 9.05885-3.4184 9.44128-3.4184.0548 0 .10014.26789.10025.59531.001 3.23408 4.9571 8.08756 10.93784 10.71098 3.73675 1.63911 3.61511 1.4808 3.61011 4.6762-.006 4.03701.0983 3.92874-6.02909 6.26938-6.21872 2.37554-8.64517 4.4878-12.27573 10.68875-7.43552 12.69972-8.89838 14.64136-12.29021 16.31115-3.89003 1.91506-8.28724 1.11216-11.19725-2.04483-9.07209-9.84205 9.79076-51.77918 27.24278-60.56788 3.67134-1.84886 9.88385-2.85231 16.19178-2.96623zm-4.87929 13.4736c.14964.006.46879.30726.96583.90485 1.28179 1.54107 1.20388 4.19101-.15658 5.32009-.45673.37902-1.48654.55666-2.39675.41289-.72712-.11484-.72675-.11519.076-.79064 1.44179-1.21319 2.03994-3.26845 1.50636-5.17643-.12643-.45211-.12686-.67621.005-.67076zm11.4701.0176c.13927.004.20348.18975.15762.58704-.19831 1.71761.2736 3.33839 1.40818 4.83743 1.04464 1.38019 1.0446 1.38028-.0506 1.38028-2.16939 0-3.96073-2.85618-3.01222-4.80281.61235-1.25673 1.21189-2.01017 1.49706-2.00194zm-29.45711 13.22141c-.19794-.005-.40247.0114-.61185.0507-2.30288.43202-2.70738 4.0158-.55553 4.92218 1.44197.60738 3.61057-.79401 3.60857-2.33165-.002-1.5204-1.05566-2.60448-2.44119-2.64118zm48.06838.4098c-2.20979 0-3.09062 2.67698-1.42782 4.33978.70537.70533.94035.78859 1.87275.66353 3.34448-.44859 2.93945-5.00331-.44493-5.00331zm-56.45754 5.37693c-1.78879.0343-3.5128 2.51923-2.11408 4.29741.4293.54577.77873.69712 1.60817.69712 2.2634 0 3.52118-2.81332 1.95699-4.37751-.44392-.44392-.95021-.62664-1.45108-.61702zm64.48237.22014c-1.03239.005-2.02747.6279-2.2102 1.86397-.16049 1.08567.60557 2.52534 1.54409 2.90267 2.05077.82449 3.69322-.72559 3.10059-2.92644-.33213-1.23342-1.40208-1.84554-2.43448-1.8402zm-58.38041 6.65696c-.31492.003-.68382.12371-1.22629.35037-2.28243.95366-2.49632 4.31775-.30024 4.72115 2.63242.48355 4.64696-2.81954 2.72697-4.47104-.47985-.41276-.79555-.60416-1.20044-.60048zm52.65621.45423c-1.10444-.0477-2.15387.57023-2.15387 1.76217 0 1.34619.42174 2.19317 1.38286 2.77916 2.27174 1.38508 4.24942-.72469 2.98018-3.17913-.4577-.88511-1.35015-1.32506-2.20917-1.3622zm-26.62783 4.96249c9.87211.0279 13.34861 2.22784 18.14825 11.48612 1.39564 2.69214 3.34279 6.23536 4.32687 7.87394 2.04694 3.40838 2.04618 3.51058-.0331 4.30206-3.61195 1.37491-4.0952 1.0615-7.76386-5.04258-.91602-1.52411-1.31199-1.98997-1.40509-1.65158-.0713.25918-.27574 1.12613-.45372 1.9265-.94088 4.231-4.22244 6.58986-9.77666 7.02696-1.09141.0859-2.28203.18204-2.64583.21394-6.82264.59826-12.1182-2.30314-13.21625-7.2409-.58328-2.62296-.53681-2.56002-1.14308-1.55805-4.61098 7.62058-4.9231 7.85269-8.59534 6.39186-2.20014-.87522-2.20152-.66081.0212-4.35942 1.07503-1.78887 2.88386-5.03845 4.0194-7.22127 5.11988-9.84181 8.67741-12.17548 18.51721-12.14758zm63.27005 4.87154c.2422 0 5.6539 2.78526 5.6539 2.9099 0 .0788-.6846.52559-1.5213.99322-.8368.46763-2.285 1.28729-3.2185 1.82108-1.1346.64878-1.6441.83157-1.5368.5519.088-.23008.2438-1.73621.3457-3.34708s.2267-2.92902.277-2.92902zm-126.74163.14883c.43908-.0157.37655.50605.39068 1.63711.0123.98226.10786 2.47055.21239 3.30729h.00051c.23634 1.89187.31472 1.89577-3.23597-.1664-3.44591-2.00129-3.44099-1.81969-.0972-3.53105 1.5645-.80071 2.34214-1.23314 2.72955-1.24695zm63.55685 1.71566c-2.80144.0229-5.65937.55725-8.01295 1.59835-1.58854.70268-1.48534.77438 1.49242 1.04231 2.88193.2593 13.41979.0897 14.76964-.23771.92604-.22465.92601-.22443-.57464-.93276-2.12809-1.00448-4.87303-1.49308-7.67447-1.47019zm56.54748 1.19837c.068-.011.033.44907-.032 1.30276-.6777 8.87267-2.1698 14.00279-5.5511 19.08463-2.8684 4.31094-6.9756 8.17487-6.9939 6.57996-.2676-1.32064-.1072-1.65924-.5033-3.54139-.61756-2.9341-.37685-2.11089 2.4753-5.15937 4.4629-4.7702 7.6071-9.55209 9.8268-16.17008.4783-1.42627.6987-2.0836.7782-2.09651zm-113.14868.93173c.12028-.008.36838.63911.80977 1.95853.82669 2.47113 2.93035 6.94566 4.24212 9.02271 1.28494 2.03456 1.28589 1.66119-.0134 4.14083-1.28997 2.46177-1.06081 2.44133-2.07015.18397-1.61981-3.62263-2.78584-8.85109-3.02359-13.5599-.0582-1.15184-.0577-1.73836.0553-1.74614zm9.47591 19.58433c.31742-.0191.78993.38822 1.95337 1.39062 5.33803 4.5992 5.31196 4.6816-2.27376 7.17062-5.26317 1.72699-4.9416 1.72182-4.32119.0708.63964-1.7022 3.21865-6.84458 4.03645-8.04808.24339-.35819.38795-.57087.60513-.58395zm82.71485 5.57331c.0226-.00061.0378.004.0455.0139.25153.33427 1.88316 5.34405 2.5306 7.77007 1.09084 4.08752 1.51608 3.87721-2.50476 1.77146-9.09706-4.76422-8.45701-3.84132-5.00383-6.41976 1.15021-.85884 4.47362-3.12341 4.93252-3.13572zm-69.15392.22841c.33534-.004.87545.23942 1.9389.70745 4.92167 2.16601 13.96966 4.73658 18.52807 5.26376 1.53964.17806 6.43013 10.66824 6.32467 10.64844s-1.32281-.13933-2.70526-.2651c-9.28223-.84451-20.81804-4.47308-27.65774-8.70024-.40897-.14913-.46246-.18386.0992-1.34772.71694-1.48557.95939-2.06689 2.31872-4.61729.61046-1.14537.66331-1.68277 1.15342-1.6893zm61.31925 10.51925c.0259.0187-10.91185 5.0505-18.31516 5.74125-1.01865.095-2.06044.23089-2.3151.30179-.61702.17171-.72911.4713 1.603-4.28863 1.13638-2.31939 2.21848-4.59446 2.40451-5.0555.3011-.74621.48832-.85777 1.70428-1.01854 2.1648-.28623 7.26548-2.14277 7.37509-2.08583.0738.0383 5.72521 5.08583 7.54338 6.40546zm-32.20578-3.40651c0-.0105 8.91308.15489 8.73641.38241-.35372.45553-3.93682 9.21174-4.22299 9.50794-.36127.37394-4.51342-9.74129-4.51342-9.89035z"/><g transform="translate(213.00693 179.89548)"><path d="m-376.65552-825.85181h4.535608v5.222821h-4.535608z" transform="rotate(90)"/><g stroke-linecap="square"><circle cx="811.53241" cy="-374.38782" r="12.245516" stroke-width=".645581"/><g transform="translate(-.000005 .000011)"><path d="m722.21613 496.45606 16.31107.94977-.55717 10.25887-16.13296-.0703z" stroke-width="11.4175" transform="matrix(.5 -.8660254 .8660254 .5 0 0)"/><g stroke-width="4.96055"><g transform="matrix(.92533699 0 0 .92533699 59.586143 -28.210634)"><path d="m810.16797-364.27866h4.90157v5.64424h-4.90157z"/><path d="m810.16797-389.5842h4.90157v5.64424h-4.90157z"/></g><g transform="matrix(.80136534 .4626685 -.4626685 .80136534 -12.760766 -450.56268)"><path d="m810.16797-364.27866h4.90157v5.64424h-4.90157z"/><path d="m810.16797-389.5842h4.90157v5.64424h-4.90157z"/></g><g transform="matrix(.4626685 .80136534 -.80136534 .4626685 135.761 -852.50373)"><path d="m810.16797-364.27866h4.90157v5.64424h-4.90157z"/><path d="m810.16797-389.5842h4.90157v5.64424h-4.90157z"/></g><g transform="matrix(-.4626685 .80136534 -.80136534 -.4626685 887.70719 -1198.6808)"><path d="m810.16797-364.27866h4.90157v5.64424h-4.90157z"/><path d="m810.16797-389.5842h4.90157v5.64424h-4.90157z"/></g></g></g></g><path d="m-892.26917-95.85627h4.535608v5.222821h-4.535608z" transform="matrix(-.8660254 .5 -.5 -.8660254 0 0)"/></g><g stroke-linecap="square"><circle cx="1024.5393" cy="-194.49236" r="6.171324" stroke="#2e5988" stroke-width="3.48667"/><g><circle cx="935.33208" cy="-310.88535" r="5.370875" stroke-width=".764117"/><circle cx="916.47624" cy="-297.64881" r="5.370875" stroke-width=".764117"/><circle cx="906.95946" cy="-286.53013" r="3.392132" stroke-width=".4826"/><circle cx="907.05369" cy="-266.83692" r="4.051713" stroke-width=".576439"/><circle cx="976.81987" cy="-311.21732" r="4.438087" stroke-width=".631409"/></g></g></g></g><g><path d="m794.19028-330.96326.00001 4.66018h-69.73476v-4.3434h-26.50898v5.19348l-19.17247 6.61923 10.03814 29.07627 9.13433-3.1533v65.76652l7.67136.00001.00001 22.51645h104.0076v-25.71471h11.30732v-61.06862l5.24619 2.15955 11.70833-28.44477-16.95452-6.97838-.89273-4.87062z" fill="#ececec" stroke-linecap="square" stroke-width=".242874"/><path d="m820.64091-229.42345v8.19536h8.4615v-8.19536zm-128.67897.50229c-2.45345 0-4.42867 1.97522-4.42867 4.42867 0 2.45346 1.97522 4.42867 4.42867 4.42867h3.39204c2.45345 0 4.42867-1.97521 4.42867-4.42867 0-2.45345-1.97522-4.42867-4.42867-4.42867zm121.64529 2.07326c-2.81886 0-5.08806 2.2692-5.08806 5.08806v9.04544c0 .19117.0107.38029.031.56586h-2.59209c-3.69686 0-6.67297 2.97611-6.67297 6.67298v1.72961c0 3.69687 2.97611 6.67349 6.67297 6.67349h3.23753c3.69687 0 6.6735-2.97662 6.6735-6.67349v-1.72961c0-.87438-.16661-1.70882-.46974-2.47272 1.92964-.72186 3.29644-2.57853 3.29644-4.76612v-9.04544c0-2.81886-2.26972-5.08806-5.08858-5.08806zm-108.3598 1.13068c-2.71445 0-4.89944 4.58077-4.89944 10.27069 0 5.68993 2.18499 10.27069 4.89944 10.27069 2.71446 0 4.89996-4.58076 4.89996-10.27069 0-5.68992-2.1855-10.27069-4.89996-10.27069zm14.76499 16.93333c-2.74075-.0684-6.69179 1.90344-10.09034 5.2741-4.53139 4.49422-6.31402 9.72273-3.99665 11.7228 2.30978 1.99352 7.79519.005 12.31811-4.45813-.88668 3.31068 4.62959 8.30676 13.51959 11.90522 9.00866 3.64649 18.32544 4.58056 22.22913 2.41794 4.30836 1.9022 10.63839 2.9362 18.04386 2.66754 15.12536-.54873 28.83965-6.31816 30.74955-12.93565 1.90989-6.61749-8.729-11.5031-23.85436-10.95437-13.46984.48867-25.82069 5.11766-29.71188 10.79883-1.97202-1.24132-4.32503-2.44029-6.9789-3.51452-8.91573-3.60888-18.13331-4.56069-22.10667-2.48357 3.12744-3.93278 4.12071-7.96749 2.15026-9.66814-.57934-.50002-1.35811-.74925-2.2717-.77205z" fill="#b50908" stroke-linecap="square" stroke-width=".940866"/><g fill="#321c1c" transform="translate(16.686098 181.21839)"><path d="m789.94171-517.61877c-2.47631.005-4.97869 1.27473-10.29446 3.81476-6.93786 3.3151-6.93786 3.315-7.9375 2.91972-4.73655-1.87295-12.87342-2.21833-21.10827-.89556-5.37971.86415-10.13512.96793-14.68438.3204-8.16493-1.16221-9.38183-1.26447-13.22917-1.11156-3.85948.15338-6.04622.50325-9.30692 1.48828-1.76646.53363-1.76647.53355-8.20209-2.62878-10.2316-5.0276-9.93271-5.01608-18.87119-.74001-25.74139 12.3144-24.47016 11.59398-25.98808 14.72779-1.73937 3.591-1.65056 3.91405 6.25543 22.76812 4.29952 10.25341 6.17776 11.87037 11.60084 9.9844 1.05264-.36607 1.9141-.62506 1.9141-.57516s-.41956 1.79434-.93225 3.87625c-5.15082 20.91618-5.17558 28.75602-.1297 40.89311 1.03953 2.50039 1.0081 6.32627-.0605 7.36027-.0375.0362-2.86618 1.64026-6.28592 3.56465-10.51799 5.91877-10.49701 5.25604-.34881 11.03601 3.32056 1.89124 6.53433 3.68951 7.14168 3.99614.98354.49657 1.15172.72416 1.53841 2.0836 1.06291 3.73672 3.11869 8.65929 4.78317 11.45253.71199 1.19482.71218 1.19482-1.14825 5.82083-4.0511 10.07318-3.82064 10.23717 9.1152 6.48694 2.93688-.85143 2.55543-.92117 4.74648.86972 8.38501 6.8536 21.85448 11.72645 35.95233 13.00644 4.62377.4198 4.40563.33983 5.11597 1.86448.33982.72939 1.00849 1.74088 1.48621 2.24741 1.46405 1.55235 2.47134 1.13472 4.02456-1.66863 1.23118-2.22211.9464-2.06967 4.28243-2.29288 8.00596-.53566 17.61428-2.95695 25.13748-6.3345 3.26935-1.46779 3.26906-1.46764 6.60735.31058 7.8005 4.15514 8.0248 4.00812 6.77116-4.43953-.55377-3.73156-.65976-3.4306 1.9389-5.50715 6.71966-5.36956 7.82352-6.32093 9.14312-7.93079.69623-.84938 3.25698-9.87969 3.62081-10.67856.14305-.31409.17305-.32176.7014-1.99095.90462-2.85792.94454-2.9015 4.62608-4.95732 13.71781-7.66024 13.8151-7.73597 11.80651-9.23923-.78011-.58384-7.24811-4.41058-7.45484-4.41058-.0479 0-1.42668-.76897-3.0639-1.70894s-3.0722-1.74364-3.18895-1.78594c-1.30934-.47434-1.34544-4.74009-.0646-7.63106 5.20193-11.74117 5.19178-18.42681-.0605-39.67819-.65031-2.63127-1.18235-4.8328-1.18235-4.8917v-.00051-.00052c.00005-.0002.00044-.001.00051-.002v-.00052l.00052-.00051.00052-.00052.00051-.00052.00052-.00051c.0462-.0343.65234.20287 1.38648.54467 2.80968 1.30809 6.40646.63417 8.33489-1.56218 1.10674-1.2605 1.42173-1.9038 4.03541-8.23671 1.20117-2.91042 3.30443-7.93148 4.67362-11.15797 4.82118-11.36108 4.24151-12.46287-10.21126-19.41174-4.44916-2.13915-10.23255-4.92537-12.85193-6.19187-5.2106-2.51937-7.66054-3.77931-10.13685-3.77445zm-94.95596 6.18102c.40468.002.30794.30604-.17363.86558-2.72679 3.16831-8.3908 14.82635-14.3428 29.52171-1.33869 3.30516-2.6448 6.12637-3.02204 6.52777-2.00157 2.12982-2.42337 1.38445-10.60865-18.74252-1.74347-4.28706-2.24721-3.85081 13.27412-11.51041 9.52959-4.70274 13.83882-6.66756 14.873-6.66213zm95.63395.0791c.74329.0402 2.50121.72942 5.05809 1.99057 1.88898.93171 7.4619 3.62385 12.38426 5.98258 10.80856 5.17934 11.1988 5.43665 11.1988 7.38405 0 .7498-8.87872 21.7255-9.31261 22.00072-1.50039.95168-2.64443-.31975-4.55786-5.06532-5.66255-14.04387-9.65873-22.71695-13.21366-28.67835-1.1186-1.87582-1.97666-3.46745-1.90686-3.53725.0608-.0608.17832-.0863.34984-.077zm-7.61348 4.86843c.20363-.004.32461.15536.55242.45631.73715.97383 2.74254 4.86642 3.7977 7.37112 1.23673 2.93569 1.26492 2.94822-2.41484-1.10536-5.14585-5.6686-4.80242-5.02547-3.22151-6.03994.71873-.46121 1.05544-.67704 1.28623-.68213zm-80.42145.26149c.014-.001.0268-.00001.0388.003 2.23666.5828 2.29821 1.30841.29765 3.51348-2.16653 2.388-6.16241 6.37744-6.16241 6.15259 0-1.43508 4.94301-9.60407 5.826-9.66917zm19.66133.20877c3.01131-.14623 6.35232.11896 10.76058.76016 9.02304 1.31245 12.37342 1.28772 19.31459-.14366 5.2584-1.08437 13.37134-.70996 17.95549.82889 8.8478 2.97011 24.66656 23.29903 27.78177 35.70273 6.49477 25.85993 6.7296 31.53077 1.76578 42.65321-3.72895 8.35547-7.20025 14.34149-7.54528 13.01109-.90806-3.50149-1.51716-5.4868-2.68304-8.74417-1.55721-4.35072-1.59618-3.39289.29043-7.21248 2.429-4.91769 3.01173-7.43205 3.01118-12.99249-.00055-5.46852-.33302-7.43086-.87436-5.15937-1.09028 4.57486-2.53517 7.99195-5.11804 12.10469-1.66594 2.6527-1.36691 2.67844-3.10678-.26407-2.16367-3.65923-5.12986-8.2615-6.89261-10.69444-1.59179-2.19699-1.83233-2.73368-1.22731-2.73368 3.20467 0 9.00963-6.00395 9.59786-9.92653.17594-1.17324.18911-1.18597 1.21543-1.18597 1.33025 0 1.17499-.33559-1.42007-3.06751-3.08789-3.25074-6.1565-4.4186-9.86399-3.7543-.98132.17584-.9332.12771.66145-.66145 1.61443-.79899 1.89432-.85112 4.56407-.85112 3.34648 0 3.31463.0413 1.04748-1.36735-7.42969-4.61637-12.70987-3.84092-19.52956 2.86804-2.87346 2.8268-5.01001-.27577-4.99091-7.2471.008-3.10081.008-3.10108-.57102-2.55695-1.88935 1.77495-3.00964 5.45729-3.00964 9.8919 0 3.19686 0 3.19672-4.82865 3.78633-5.85279.71467-6.80989.71882-12.36927.0532-2.40109-.28746-4.43675-.52514-4.52375-.52814s-.10564-1.16602-.0413-2.58485c.1807-3.98655-.92194-8.24631-2.64894-10.23193-.85542-.98356-.85548-.98367-.90278 2.02106-.0726 4.61742-1.69255 10.46632-2.23501 8.06979-.57581-2.54381-1.97248-3.82778-4.52169-4.15788-2.73936-.35471-14.75982-6.35783-14.75982-7.37113 0-1.10359 12.05746-9.1639 13.10979-8.76381 1.61937.61568 3.59892-1.33972 4.9873-1.10484 10.70637 1.81127 8.72359 2.86005 10.24072 7.45898 2.61824 7.93678 1.97125 7.76286 3.49281 6.36033.68343-.62997 1.40838-1.43451 1.2423-1.67173-.53302-.76137-2.40436-9.00114-3.22565-11.97395-.29653-1.07334-.5462-1.39141-5.66373-2.35747-5.37883-1.01539-5.31741-1.29921-5.82084-2.38125-.94749-2.03652-3.94796-3.02072-5.62601-1.84537-.58119.40709-.64941.39042-1.44746-.35347-.46078-.42952-2.36925-1.94742-4.24056-3.37292-3.40238-2.59181-3.40205-2.59192-3.24373-3.54913.087-.52646.15923-1.21199.16123-1.52394.003-.48788.41489-.70137 2.9502-1.52652 3.0887-1.00525 5.77008-1.56323 8.78138-1.70946zm-15.19494 7.64294c1.64642.008 9.93262 6.67155 10.08052 8.10597.15836 1.53591-11.7444 10.01717-13.15578 9.3741-2.38522-1.08678-5.06649.92391-4.76767 3.57498.11652 1.03378.0422 1.20984-.89917 2.12907-.56445.55117-1.88453 2.04821-2.93367 3.32693-1.15216 1.40428-2.10254 2.32492-2.39934 2.32492-1.63175 0-2.63775 2.87065-1.50895 4.30568 1.08685 1.3817.76681 15.28982-.36587 15.8998-3.1564 1.69984-1.27177 6.76637 2.25826 6.07095 1.18128-.23272 4.98678 4.55539 4.98678 6.27455 0 1.00907.1721 1.46516.92604 2.45257 1.13399 1.48513 1.21007.91384-.63045 4.74803-.85621 1.78367-1.82487 3.98735-2.15233 4.89686-.70035 1.94524-.67479 1.93642-1.89756.66146-1.99994-2.08531-4.52965-6.3737-5.65753-9.59115-.60287-1.71979-.603-1.71958-.6227 1.26814-.031 4.7082.82355 7.89869 3.57859 13.36094 1.17313 2.32591 1.17329 2.32591.7891 3.83646-.21131.8308-.42254 1.86769-.46974 2.30425-.25419 2.35249-8.6561-14.78016-10.16475-20.72742-1.32414-5.21986.18325-16.62482 4.55166-34.4382 2.34589-9.56594 16.32698-30.18009 20.45456-30.15889zm55.15581 3.66128c-1.72177.0746-3.27112.98171-3.27112 2.66185 0 .78201-.40851.95182-5.40897 2.24173-2.61135.67361-4.83419 1.36378-4.93924 1.53375-.18735.30314-.53258 1.49842-2.65875 9.21029-1.05717 3.83449-1.05682 3.8347.32711 5.12062 1.70243 1.58186 1.74537 2.15791 3.50263-5.79086 1.58022-7.14797 1.63904-6.59676 10.01645-8.13645 4.297-.78975 8.44494-.42092 6.73757-4.50722-.68953-1.65026-2.58391-2.40834-4.30568-2.33371zm15.428 12.38942c-.25242-.0129-.0364.2388.58446.7612.78964.66444 4.22838 4.55754 6.53087 7.39386.59066.72761 1.95269 2.38526 3.02668 3.6835 2.13513 2.58092 2.36305 2.59369 1.72755.0982-1.31362-5.15833-4.80282-9.07203-10.06347-11.2882-.99584-.41952-1.58337-.63715-1.80609-.64854zm-72.2421 8.30647c.66702.0344 1.72317.52754 5.10304 2.1053 2.7039 1.26221 5.69118 2.64989 6.63836 3.08405 1.72214.78939 1.7219.78933 2.04638 2.33629.41105 1.95969.4201 1.9547-1.71462.9803-8.53405-3.89539-13.55466-2.97789-18.36322 3.35484-1.52254 2.00514-1.54941 2.14302-.41806 2.14302.85098 0 .87632.0349 1.3379 1.82676 1.10222 4.27869 3.92592 7.29966 8.34936 8.93279 1.811.66862 1.81096.66835.18965 2.82567-.89173 1.18652-2.23584 3.00661-2.98741 4.04419-1.15587 1.59571-1.56065 1.95257-2.62465 2.31511-.69184.23573-1.35255.4284-1.46812.4284-.53051 0-5.25188-6.21635-5.25188-6.91483 0-1.00959-.37343-1.88607-1.17047-2.74608-.99903-1.07802-1.08003-14.36757-.0951-15.61972.37842-.48108.60336-1.1629.63356-1.92133.0748-1.88029 5.22009-6.97491 6.83369-6.76651.61074.0789 1.52221-.0201 2.1115-.22945.32404-.1151.54688-.19443.85008-.1788zm2.34507 11.92692c.37393.006.39175.51723.33952 1.87844-.21618 5.63012 7.31589 6.57552 8.41964 1.05679.18065-.90327 1.9362-.47228 1.9513.47904.0186 1.17384-2.44464 3.94036-4.14135 4.65139-5.60434 2.34861-12.73999-4.99577-7.49102-7.71012.43257-.22373.72605-.35886.92191-.35554zm69.26968.4129c.13784.007.33455.0747.60823.1695 3.04614 1.0546 2.1341 5.58137-1.48208 7.35614-4.298 2.1094-8.68825.0879-10.14512-4.67104-.13154-.4297.0385-.61347.90434-.97823 1.17152-.4935 1.14523-.51572 1.43609 1.22421.8784 5.25461 8.91648 3.96428 8.47286-1.36012-.11425-1.37128-.1466-1.75708.20568-1.74046zm-35.48311 2.79931c6.30793-.11392 12.71153.66157 16.76435 2.37092 12.52338 5.28196 26.07914 26.7912 30.43122 48.28542 2.03429 10.04701-1.20329 15.80534-8.88783 15.80834-5.82631.003-8.12724-2.35561-16.99483-17.41393-3.76064-6.38607-5.73253-8.05513-12.62714-10.6903-6.31544-2.41382-8.03877-8.07011-3.05614-10.0304 6.45038-2.53775 10.8694-6.48957 12.29796-10.99777.33588-1.05996 3.18134-.33396 9.6144 2.45411 2.88448 1.25012 2.5881.78081-2.75436-4.36614-10.37411-9.99447-14.39614-11.79178-25.63254-11.45357-9.12939.27478-12.52515 2.13369-23.73602 12.99301-4.39887 4.26092-4.36132 4.17-1.15083 2.78588 2.00532-.86454 9.05885-3.4184 9.44128-3.4184.0548 0 .10014.26789.10025.59531.001 3.23408 4.9571 8.08756 10.93784 10.71098 3.73675 1.63911 3.61511 1.4808 3.61011 4.6762-.006 4.03701.0983 3.92874-6.02909 6.26938-6.21872 2.37554-8.64517 4.4878-12.27573 10.68875-7.43552 12.69972-8.89838 14.64136-12.29021 16.31115-3.89003 1.91506-8.28724 1.11216-11.19725-2.04483-9.07209-9.84205 9.79076-51.77918 27.24278-60.56788 3.67134-1.84886 9.88385-2.85231 16.19178-2.96623zm-4.87929 13.4736c.14964.006.46879.30726.96583.90485 1.28179 1.54107 1.20388 4.19101-.15658 5.32009-.45673.37902-1.48654.55666-2.39675.41289-.72712-.11484-.72675-.11519.076-.79064 1.44179-1.21319 2.03994-3.26845 1.50636-5.17643-.12643-.45211-.12686-.67621.005-.67076zm11.4701.0176c.13927.004.20348.18975.15762.58704-.19831 1.71761.2736 3.33839 1.40818 4.83743 1.04464 1.38019 1.0446 1.38028-.0506 1.38028-2.16939 0-3.96073-2.85618-3.01222-4.80281.61235-1.25673 1.21189-2.01017 1.49706-2.00194zm-29.45711 13.22141c-.19794-.005-.40247.0114-.61185.0507-2.30288.43202-2.70738 4.0158-.55553 4.92218 1.44197.60738 3.61057-.79401 3.60857-2.33165-.002-1.5204-1.05566-2.60448-2.44119-2.64118zm48.06838.4098c-2.20979 0-3.09062 2.67698-1.42782 4.33978.70537.70533.94035.78859 1.87275.66353 3.34448-.44859 2.93945-5.00331-.44493-5.00331zm-56.45754 5.37693c-1.78879.0343-3.5128 2.51923-2.11408 4.29741.4293.54577.77873.69712 1.60817.69712 2.2634 0 3.52118-2.81332 1.95699-4.37751-.44392-.44392-.95021-.62664-1.45108-.61702zm64.48237.22014c-1.03239.005-2.02747.6279-2.2102 1.86397-.16049 1.08567.60557 2.52534 1.54409 2.90267 2.05077.82449 3.69322-.72559 3.10059-2.92644-.33213-1.23342-1.40208-1.84554-2.43448-1.8402zm-58.38041 6.65696c-.31492.003-.68382.12371-1.22629.35037-2.28243.95366-2.49632 4.31775-.30024 4.72115 2.63242.48355 4.64696-2.81954 2.72697-4.47104-.47985-.41276-.79555-.60416-1.20044-.60048zm52.65621.45423c-1.10444-.0477-2.15387.57023-2.15387 1.76217 0 1.34619.42174 2.19317 1.38286 2.77916 2.27174 1.38508 4.24942-.72469 2.98018-3.17913-.4577-.88511-1.35015-1.32506-2.20917-1.3622zm-26.62783 4.96249c9.87211.0279 13.34861 2.22784 18.14825 11.48612 1.39564 2.69214 3.34279 6.23536 4.32687 7.87394 2.04694 3.40838 2.04618 3.51058-.0331 4.30206-3.61195 1.37491-4.0952 1.0615-7.76386-5.04258-.91602-1.52411-1.31199-1.98997-1.40509-1.65158-.0713.25918-.27574 1.12613-.45372 1.9265-.94088 4.231-4.22244 6.58986-9.77666 7.02696-1.09141.0859-2.28203.18204-2.64583.21394-6.82264.59826-12.1182-2.30314-13.21625-7.2409-.58328-2.62296-.53681-2.56002-1.14308-1.55805-4.61098 7.62058-4.9231 7.85269-8.59534 6.39186-2.20014-.87522-2.20152-.66081.0212-4.35942 1.07503-1.78887 2.88386-5.03845 4.0194-7.22127 5.11988-9.84181 8.67741-12.17548 18.51721-12.14758zm63.27004 4.87154c.24219 0 5.65392 2.78526 5.65392 2.9099 0 .0788-.6846.52559-1.52135.99322-.83674.46763-2.28491 1.28729-3.21841 1.82108-1.13465.64878-1.64418.83157-1.53686.5519.0883-.23008.24379-1.73621.34572-3.34708s.22668-2.92902.27698-2.92902zm-126.74162.14883c.43908-.0157.37655.50605.39068 1.63711.0123.98226.10786 2.47055.21239 3.30729h.00051c.23634 1.89187.31472 1.89577-3.23597-.1664-3.44591-2.00129-3.44099-1.81969-.0972-3.53105 1.5645-.80071 2.34214-1.23314 2.72955-1.24695zm63.55685 1.71566c-2.80144.0229-5.65937.55725-8.01295 1.59835-1.58854.70268-1.48534.77438 1.49242 1.04231 2.88193.2593 13.41979.0897 14.76964-.23771.92604-.22465.92601-.22443-.57464-.93276-2.12809-1.00448-4.87303-1.49308-7.67447-1.47019zm56.54745 1.19837c.068-.011.0332.44907-.032 1.30276-.67763 8.87267-2.16974 14.00279-5.55108 19.08463-2.8684 4.31094-6.97559 8.17487-6.99389 6.57996-.26755-1.32064-.1072-1.65924-.50333-3.54139-.61753-2.9341-.37682-2.11089 2.4753-5.15937 4.46295-4.7702 7.60713-9.55209 9.82679-16.17008.47837-1.42627.69877-2.0836.77825-2.09651zm-113.14865.93173c.12028-.008.36838.63911.80977 1.95853.82669 2.47113 2.93035 6.94566 4.24212 9.02271 1.28494 2.03456 1.28589 1.66119-.0134 4.14083-1.28997 2.46177-1.06081 2.44133-2.07015.18397-1.61981-3.62263-2.78584-8.85109-3.02359-13.5599-.0582-1.15184-.0577-1.73836.0553-1.74614zm9.47591 19.58433c.31742-.0191.78993.38822 1.95337 1.39062 5.33803 4.5992 5.31196 4.6816-2.27376 7.17062-5.26317 1.72699-4.9416 1.72182-4.32119.0708.63964-1.7022 3.21865-6.84458 4.03645-8.04808.24339-.35819.38795-.57087.60513-.58395zm82.71485 5.57331c.0226-.00061.0378.004.0455.0139.25153.33427 1.88316 5.34405 2.5306 7.77007 1.09084 4.08752 1.51608 3.87721-2.50476 1.77146-9.09706-4.76422-8.45701-3.84132-5.00383-6.41976 1.15021-.85884 4.47362-3.12341 4.93252-3.13572zm-69.15392.22841c.33534-.004.87545.23942 1.9389.70745 4.92167 2.16601 13.96966 4.73658 18.52807 5.26376 1.53964.17806 6.43013 10.66824 6.32467 10.64844s-1.32281-.13933-2.70526-.2651c-9.28223-.84451-20.81804-4.47308-27.65774-8.70024-.40897-.14913-.46246-.18386.0992-1.34772.71694-1.48557.95939-2.06689 2.31872-4.61729.61046-1.14537.66331-1.68277 1.15342-1.6893zm61.31925 10.51925c.0259.0187-10.91185 5.0505-18.31516 5.74125-1.01865.095-2.06044.23089-2.3151.30179-.61702.17171-.72911.4713 1.603-4.28863 1.13638-2.31939 2.21848-4.59446 2.40451-5.0555.3011-.74621.48832-.85777 1.70428-1.01854 2.1648-.28623 7.26548-2.14277 7.37509-2.08583.0738.0383 5.72521 5.08583 7.54338 6.40546zm-32.20578-3.40651c0-.0105 8.91308.15489 8.73641.38241-.35372.45553-3.93682 9.21174-4.22299 9.50794-.36127.37394-4.51342-9.74129-4.51342-9.89035z"/><g transform="translate(-1.058333 -.264583)"><path d="m-376.65552-825.85181h4.535608v5.222821h-4.535608z" transform="rotate(90)"/><g stroke-linecap="square"><circle cx="811.53241" cy="-374.38782" r="12.245516" stroke-width=".645581"/><g transform="translate(-.000005 .000011)"><path d="m722.21613 496.45606 16.31107.94977-.55717 10.25887-16.13296-.0703z" stroke-width="11.4175" transform="matrix(.5 -.8660254 .8660254 .5 0 0)"/><g stroke-width="4.96055"><g transform="matrix(.92533699 0 0 .92533699 59.586143 -28.210634)"><path d="m810.16797-364.27866h4.90157v5.64424h-4.90157z"/><path d="m810.16797-389.5842h4.90157v5.64424h-4.90157z"/></g><g transform="matrix(.80136534 .4626685 -.4626685 .80136534 -12.760766 -450.56268)"><path d="m810.16797-364.27866h4.90157v5.64424h-4.90157z"/><path d="m810.16797-389.5842h4.90157v5.64424h-4.90157z"/></g><g transform="matrix(.4626685 .80136534 -.80136534 .4626685 135.761 -852.50373)"><path d="m810.16797-364.27866h4.90157v5.64424h-4.90157z"/><path d="m810.16797-389.5842h4.90157v5.64424h-4.90157z"/></g><g transform="matrix(-.4626685 .80136534 -.80136534 -.4626685 887.70719 -1198.6808)"><path d="m810.16797-364.27866h4.90157v5.64424h-4.90157z"/><path d="m810.16797-389.5842h4.90157v5.64424h-4.90157z"/></g></g></g></g><path d="m-892.26917-95.85627h4.535608v5.222821h-4.535608z" transform="matrix(-.8660254 .5 -.5 -.8660254 0 0)"/></g></g><g stroke-linecap="square"><circle cx="827.16016" cy="-193.43402" fill="none" r="6.171324" stroke="#b50908" stroke-width="3.48667"/><g fill="#321c1c"><circle cx="737.952913" cy="-309.82702" r="5.370875" stroke-width=".764117"/><circle cx="719.097073" cy="-296.59048" r="5.370875" stroke-width=".764117"/><circle cx="709.580293" cy="-285.4718" r="3.392132" stroke-width=".4826"/><circle cx="709.674523" cy="-265.77859" r="4.051713" stroke-width=".576439"/><circle cx="779.440703" cy="-310.15899" r="4.438087" stroke-width=".631409"/></g></g></g></g></svg>