<?xml version="1.0" encoding="UTF-8" standalone="no"?>
<svg
   height="165.52472mm"
   viewBox="0 0 166.44853 165.52472"
   width="166.44853mm"
   version="1.1"
   id="svg95"
   sodipodi:docname="logo.svg"
   inkscape:version="1.4.2 (ebf0e940d0, 2025-05-08)"
   xmlns:inkscape="http://www.inkscape.org/namespaces/inkscape"
   xmlns:sodipodi="http://sodipodi.sourceforge.net/DTD/sodipodi-0.dtd"
   xmlns="http://www.w3.org/2000/svg"
   xmlns:svg="http://www.w3.org/2000/svg">
  <defs
     id="defs95" />
  <sodipodi:namedview
     id="namedview95"
     pagecolor="#ffffff"
     bordercolor="#999999"
     borderopacity="1"
     inkscape:showpageshadow="2"
     inkscape:pageopacity="0"
     inkscape:pagecheckerboard="0"
     inkscape:deskcolor="#d1d1d1"
     inkscape:document-units="mm"
     inkscape:zoom="0.33063273"
     inkscape:cx="397.72227"
     inkscape:cy="388.64875"
     inkscape:window-width="948"
     inkscape:window-height="1006"
     inkscape:window-x="2882"
     inkscape:window-y="36"
     inkscape:window-maximized="1"
     inkscape:current-layer="svg95" />
  <g
     id="g24"
     transform="translate(-661.80593,520.55085)">
    <path
       d="m 525.13524,-773.19014 1.77378,4.3094 -64.48583,26.5427 -1.6532,-4.01647 -24.51365,10.08994 1.97676,4.80257 -15.20992,13.4185 20.34969,23.06694 7.24656,-6.39269 25.0323,60.81628 7.09394,-2.9199 8.5703,20.82164 96.17895,-39.58775 -9.78762,-23.77917 10.45621,-4.30383 -23.24416,-56.47199 5.67329,1.8e-4 2.9e-4,-30.7602 -18.33449,1.7e-4 -2.67941,-4.16421 z"
       fill="#e8c491"
       stroke-linecap="square"
       stroke-width="0.242874"
       transform="rotate(22.372318)"
       id="path1" />
    <g
       transform="translate(2.3986,-2.931622)"
       id="g19">
      <path
         d="m 803.95481,-410.64183 v 8.19536 h 8.4615 v -8.19536 z m -128.67897,0.50229 c -2.45345,0 -4.42867,1.97522 -4.42867,4.42867 0,2.45346 1.97522,4.42867 4.42867,4.42867 h 3.39204 c 2.45345,0 4.42867,-1.97521 4.42867,-4.42867 0,-2.45345 -1.97522,-4.42867 -4.42867,-4.42867 z m 121.64529,2.07326 c -2.81886,0 -5.08806,2.2692 -5.08806,5.08806 v 9.04544 c 0,0.19117 0.0107,0.38029 0.031,0.56586 h -2.59209 c -3.69686,0 -6.67297,2.97611 -6.67297,6.67298 v 1.72961 c 0,3.69687 2.97611,6.67349 6.67297,6.67349 h 3.23753 c 3.69687,0 6.6735,-2.97662 6.6735,-6.67349 v -1.72961 c 0,-0.87438 -0.16661,-1.70882 -0.46974,-2.47272 1.92964,-0.72186 3.29644,-2.57853 3.29644,-4.76612 v -9.04544 c 0,-2.81886 -2.26972,-5.08806 -5.08858,-5.08806 z m -108.3598,1.13068 c -2.71445,0 -4.89944,4.58077 -4.89944,10.27069 0,5.68993 2.18499,10.27069 4.89944,10.27069 2.71446,0 4.89996,-4.58076 4.89996,-10.27069 0,-5.68992 -2.1855,-10.27069 -4.89996,-10.27069 z m 14.76499,16.93333 c -2.74075,-0.0684 -6.69179,1.90344 -10.09034,5.2741 -4.53139,4.49422 -6.31402,9.72273 -3.99665,11.7228 2.30978,1.99352 7.79519,0.005 12.31811,-4.45813 -0.88668,3.31068 4.62959,8.30676 13.51959,11.90522 9.00866,3.64649 18.32544,4.58056 22.22913,2.41794 4.30836,1.9022 10.63839,2.9362 18.04386,2.66754 15.12536,-0.54873 28.83965,-6.31816 30.74955,-12.93565 1.90989,-6.61749 -8.729,-11.5031 -23.85436,-10.95437 -13.46984,0.48867 -25.82069,5.11766 -29.71188,10.79883 -1.97202,-1.24132 -4.32503,-2.44029 -6.9789,-3.51452 -8.91573,-3.60888 -18.13331,-4.56069 -22.10667,-2.48357 3.12744,-3.93278 4.12071,-7.96749 2.15026,-9.66814 -0.57934,-0.50002 -1.35811,-0.74925 -2.2717,-0.77205 z"
         fill="#b07236"
         stroke-linecap="square"
         stroke-width="0.940866"
         id="path2" />
      <g
         fill="#2f2419"
         transform="translate(-5e-6,1.1e-5)"
         id="g18">
        <path
           d="m 789.94171,-517.61877 c -2.47631,0.005 -4.97869,1.27473 -10.29446,3.81476 -6.93786,3.3151 -6.93786,3.315 -7.9375,2.91972 -4.73655,-1.87295 -12.87342,-2.21833 -21.10827,-0.89556 -5.37971,0.86415 -10.13512,0.96793 -14.68438,0.3204 -8.16493,-1.16221 -9.38183,-1.26447 -13.22917,-1.11156 -3.85948,0.15338 -6.04622,0.50325 -9.30692,1.48828 -1.76646,0.53363 -1.76647,0.53355 -8.20209,-2.62878 -10.2316,-5.0276 -9.93271,-5.01608 -18.87119,-0.74001 -25.74139,12.3144 -24.47016,11.59398 -25.98808,14.72779 -1.73937,3.591 -1.65056,3.91405 6.25543,22.76812 4.29952,10.25341 6.17776,11.87037 11.60084,9.9844 1.05264,-0.36607 1.9141,-0.62506 1.9141,-0.57516 0,0.0499 -0.41956,1.79434 -0.93225,3.87625 -5.15082,20.91618 -5.17558,28.75602 -0.1297,40.89311 1.03953,2.50039 1.0081,6.32627 -0.0605,7.36027 -0.0375,0.0362 -2.86618,1.64026 -6.28592,3.56465 -10.51799,5.91877 -10.49701,5.25604 -0.34881,11.03601 3.32056,1.89124 6.53433,3.68951 7.14168,3.99614 0.98354,0.49657 1.15172,0.72416 1.53841,2.0836 1.06291,3.73672 3.11869,8.65929 4.78317,11.45253 0.71199,1.19482 0.71218,1.19482 -1.14825,5.82083 -4.0511,10.07318 -3.82064,10.23717 9.1152,6.48694 2.93688,-0.85143 2.55543,-0.92117 4.74648,0.86972 8.38501,6.8536 21.85448,11.72645 35.95233,13.00644 4.62377,0.4198 4.40563,0.33983 5.11597,1.86448 0.33982,0.72939 1.00849,1.74088 1.48621,2.24741 1.46405,1.55235 2.47134,1.13472 4.02456,-1.66863 1.23118,-2.22211 0.9464,-2.06967 4.28243,-2.29288 8.00596,-0.53566 17.61428,-2.95695 25.13748,-6.3345 3.26935,-1.46779 3.26906,-1.46764 6.60735,0.31058 7.8005,4.15514 8.0248,4.00812 6.77116,-4.43953 -0.55377,-3.73156 -0.65976,-3.4306 1.9389,-5.50715 6.71966,-5.36956 7.82352,-6.32093 9.14312,-7.93079 0.69623,-0.84938 3.25698,-9.87969 3.62081,-10.67856 0.14305,-0.31409 0.17305,-0.32176 0.7014,-1.99095 0.90462,-2.85792 0.94454,-2.9015 4.62608,-4.95732 13.71781,-7.66024 13.8151,-7.73597 11.80651,-9.23923 -0.78011,-0.58384 -7.24811,-4.41058 -7.45484,-4.41058 -0.0479,0 -1.42668,-0.76897 -3.0639,-1.70894 -1.63722,-0.93997 -3.0722,-1.74364 -3.18895,-1.78594 -1.30934,-0.47434 -1.34544,-4.74009 -0.0646,-7.63106 5.20193,-11.74117 5.19178,-18.42681 -0.0605,-39.67819 -0.65031,-2.63127 -1.18235,-4.8328 -1.18235,-4.8917 v -5.1e-4 -5.2e-4 c 5e-5,-2e-4 4.4e-4,-0.001 5.1e-4,-0.002 v -5.2e-4 l 5.2e-4,-5.1e-4 5.2e-4,-5.2e-4 5.1e-4,-5.2e-4 5.2e-4,-5.1e-4 c 0.0462,-0.0343 0.65234,0.20287 1.38648,0.54467 2.80968,1.30809 6.40646,0.63417 8.33489,-1.56218 1.10674,-1.2605 1.42173,-1.9038 4.03541,-8.23671 1.20117,-2.91042 3.30443,-7.93148 4.67362,-11.15797 4.82118,-11.36108 4.24151,-12.46287 -10.21126,-19.41174 -4.44916,-2.13915 -10.23255,-4.92537 -12.85193,-6.19187 -5.2106,-2.51937 -7.66054,-3.77931 -10.13685,-3.77445 z m -94.95596,6.18102 c 0.40468,0.002 0.30794,0.30604 -0.17363,0.86558 -2.72679,3.16831 -8.3908,14.82635 -14.3428,29.52171 -1.33869,3.30516 -2.6448,6.12637 -3.02204,6.52777 -2.00157,2.12982 -2.42337,1.38445 -10.60865,-18.74252 -1.74347,-4.28706 -2.24721,-3.85081 13.27412,-11.51041 9.52959,-4.70274 13.83882,-6.66756 14.873,-6.66213 z m 95.63395,0.0791 c 0.74329,0.0402 2.50121,0.72942 5.05809,1.99057 1.88898,0.93171 7.4619,3.62385 12.38426,5.98258 10.80856,5.17934 11.1988,5.43665 11.1988,7.38405 0,0.7498 -8.87872,21.7255 -9.31261,22.00072 -1.50039,0.95168 -2.64443,-0.31975 -4.55786,-5.06532 -5.66255,-14.04387 -9.65873,-22.71695 -13.21366,-28.67835 -1.1186,-1.87582 -1.97666,-3.46745 -1.90686,-3.53725 0.0608,-0.0608 0.17832,-0.0863 0.34984,-0.077 z m -7.61348,4.86843 c 0.20363,-0.004 0.32461,0.15536 0.55242,0.45631 0.73715,0.97383 2.74254,4.86642 3.7977,7.37112 1.23673,2.93569 1.26492,2.94822 -2.41484,-1.10536 -5.14585,-5.6686 -4.80242,-5.02547 -3.22151,-6.03994 0.71873,-0.46121 1.05544,-0.67704 1.28623,-0.68213 z m -80.42145,0.26149 c 0.014,-0.001 0.0268,-1e-5 0.0388,0.003 2.23666,0.5828 2.29821,1.30841 0.29765,3.51348 -2.16653,2.388 -6.16241,6.37744 -6.16241,6.15259 0,-1.43508 4.94301,-9.60407 5.826,-9.66917 z m 19.66133,0.20877 c 3.01131,-0.14623 6.35232,0.11896 10.76058,0.76016 9.02304,1.31245 12.37342,1.28772 19.31459,-0.14366 5.2584,-1.08437 13.37134,-0.70996 17.95549,0.82889 8.8478,2.97011 24.66656,23.29903 27.78177,35.70273 6.49477,25.85993 6.7296,31.53077 1.76578,42.65321 -3.72895,8.35547 -7.20025,14.34149 -7.54528,13.01109 -0.90806,-3.50149 -1.51716,-5.4868 -2.68304,-8.74417 -1.55721,-4.35072 -1.59618,-3.39289 0.29043,-7.21248 2.429,-4.91769 3.01173,-7.43205 3.01118,-12.99249 -5.5e-4,-5.46852 -0.33302,-7.43086 -0.87436,-5.15937 -1.09028,4.57486 -2.53517,7.99195 -5.11804,12.10469 -1.66594,2.6527 -1.36691,2.67844 -3.10678,-0.26407 -2.16367,-3.65923 -5.12986,-8.2615 -6.89261,-10.69444 -1.59179,-2.19699 -1.83233,-2.73368 -1.22731,-2.73368 3.20467,0 9.00963,-6.00395 9.59786,-9.92653 0.17594,-1.17324 0.18911,-1.18597 1.21543,-1.18597 1.33025,0 1.17499,-0.33559 -1.42007,-3.06751 -3.08789,-3.25074 -6.1565,-4.4186 -9.86399,-3.7543 -0.98132,0.17584 -0.9332,0.12771 0.66145,-0.66145 1.61443,-0.79899 1.89432,-0.85112 4.56407,-0.85112 3.34648,0 3.31463,0.0413 1.04748,-1.36735 -7.42969,-4.61637 -12.70987,-3.84092 -19.52956,2.86804 -2.87346,2.8268 -5.01001,-0.27577 -4.99091,-7.2471 0.008,-3.10081 0.008,-3.10108 -0.57102,-2.55695 -1.88935,1.77495 -3.00964,5.45729 -3.00964,9.8919 0,3.19686 0,3.19672 -4.82865,3.78633 -5.85279,0.71467 -6.80989,0.71882 -12.36927,0.0532 -2.40109,-0.28746 -4.43675,-0.52514 -4.52375,-0.52814 -0.087,-0.003 -0.10564,-1.16602 -0.0413,-2.58485 0.1807,-3.98655 -0.92194,-8.24631 -2.64894,-10.23193 -0.85542,-0.98356 -0.85548,-0.98367 -0.90278,2.02106 -0.0726,4.61742 -1.69255,10.46632 -2.23501,8.06979 -0.57581,-2.54381 -1.97248,-3.82778 -4.52169,-4.15788 -2.73936,-0.35471 -14.75982,-6.35783 -14.75982,-7.37113 0,-1.10359 12.05746,-9.1639 13.10979,-8.76381 1.61937,0.61568 3.59892,-1.33972 4.9873,-1.10484 10.70637,1.81127 8.72359,2.86005 10.24072,7.45898 2.61824,7.93678 1.97125,7.76286 3.49281,6.36033 0.68343,-0.62997 1.40838,-1.43451 1.2423,-1.67173 -0.53302,-0.76137 -2.40436,-9.00114 -3.22565,-11.97395 -0.29653,-1.07334 -0.5462,-1.39141 -5.66373,-2.35747 -5.37883,-1.01539 -5.31741,-1.29921 -5.82084,-2.38125 -0.94749,-2.03652 -3.94796,-3.02072 -5.62601,-1.84537 -0.58119,0.40709 -0.64941,0.39042 -1.44746,-0.35347 -0.46078,-0.42952 -2.36925,-1.94742 -4.24056,-3.37292 -3.40238,-2.59181 -3.40205,-2.59192 -3.24373,-3.54913 0.087,-0.52646 0.15923,-1.21199 0.16123,-1.52394 0.003,-0.48788 0.41489,-0.70137 2.9502,-1.52652 3.0887,-1.00525 5.77008,-1.56323 8.78138,-1.70946 z m -15.19494,7.64294 c 1.64642,0.008 9.93262,6.67155 10.08052,8.10597 0.15836,1.53591 -11.7444,10.01717 -13.15578,9.3741 -2.38522,-1.08678 -5.06649,0.92391 -4.76767,3.57498 0.11652,1.03378 0.0422,1.20984 -0.89917,2.12907 -0.56445,0.55117 -1.88453,2.04821 -2.93367,3.32693 -1.15216,1.40428 -2.10254,2.32492 -2.39934,2.32492 -1.63175,0 -2.63775,2.87065 -1.50895,4.30568 1.08685,1.3817 0.76681,15.28982 -0.36587,15.8998 -3.1564,1.69984 -1.27177,6.76637 2.25826,6.07095 1.18128,-0.23272 4.98678,4.55539 4.98678,6.27455 0,1.00907 0.1721,1.46516 0.92604,2.45257 1.13399,1.48513 1.21007,0.91384 -0.63045,4.74803 -0.85621,1.78367 -1.82487,3.98735 -2.15233,4.89686 -0.70035,1.94524 -0.67479,1.93642 -1.89756,0.66146 -1.99994,-2.08531 -4.52965,-6.3737 -5.65753,-9.59115 -0.60287,-1.71979 -0.603,-1.71958 -0.6227,1.26814 -0.031,4.7082 0.82355,7.89869 3.57859,13.36094 1.17313,2.32591 1.17329,2.32591 0.7891,3.83646 -0.21131,0.8308 -0.42254,1.86769 -0.46974,2.30425 -0.25419,2.35249 -8.6561,-14.78016 -10.16475,-20.72742 -1.32414,-5.21986 0.18325,-16.62482 4.55166,-34.4382 2.34589,-9.56594 16.32698,-30.18009 20.45456,-30.15889 z m 55.15581,3.66128 c -1.72177,0.0746 -3.27112,0.98171 -3.27112,2.66185 0,0.78201 -0.40851,0.95182 -5.40897,2.24173 -2.61135,0.67361 -4.83419,1.36378 -4.93924,1.53375 -0.18735,0.30314 -0.53258,1.49842 -2.65875,9.21029 -1.05717,3.83449 -1.05682,3.8347 0.32711,5.12062 1.70243,1.58186 1.74537,2.15791 3.50263,-5.79086 1.58022,-7.14797 1.63904,-6.59676 10.01645,-8.13645 4.297,-0.78975 8.44494,-0.42092 6.73757,-4.50722 -0.68953,-1.65026 -2.58391,-2.40834 -4.30568,-2.33371 z m 15.428,12.38942 c -0.25242,-0.0129 -0.0364,0.2388 0.58446,0.7612 0.78964,0.66444 4.22838,4.55754 6.53087,7.39386 0.59066,0.72761 1.95269,2.38526 3.02668,3.6835 2.13513,2.58092 2.36305,2.59369 1.72755,0.0982 -1.31362,-5.15833 -4.80282,-9.07203 -10.06347,-11.2882 -0.99584,-0.41952 -1.58337,-0.63715 -1.80609,-0.64854 z m -72.2421,8.30647 c 0.66702,0.0344 1.72317,0.52754 5.10304,2.1053 2.7039,1.26221 5.69118,2.64989 6.63836,3.08405 1.72214,0.78939 1.7219,0.78933 2.04638,2.33629 0.41105,1.95969 0.4201,1.9547 -1.71462,0.9803 -8.53405,-3.89539 -13.55466,-2.97789 -18.36322,3.35484 -1.52254,2.00514 -1.54941,2.14302 -0.41806,2.14302 0.85098,0 0.87632,0.0349 1.3379,1.82676 1.10222,4.27869 3.92592,7.29966 8.34936,8.93279 1.811,0.66862 1.81096,0.66835 0.18965,2.82567 -0.89173,1.18652 -2.23584,3.00661 -2.98741,4.04419 -1.15587,1.59571 -1.56065,1.95257 -2.62465,2.31511 -0.69184,0.23573 -1.35255,0.4284 -1.46812,0.4284 -0.53051,0 -5.25188,-6.21635 -5.25188,-6.91483 0,-1.00959 -0.37343,-1.88607 -1.17047,-2.74608 -0.99903,-1.07802 -1.08003,-14.36757 -0.0951,-15.61972 0.37842,-0.48108 0.60336,-1.1629 0.63356,-1.92133 0.0748,-1.88029 5.22009,-6.97491 6.83369,-6.76651 0.61074,0.0789 1.52221,-0.0201 2.1115,-0.22945 0.32404,-0.1151 0.54688,-0.19443 0.85008,-0.1788 z m 2.34507,11.92692 c 0.37393,0.006 0.39175,0.51723 0.33952,1.87844 -0.21618,5.63012 7.31589,6.57552 8.41964,1.05679 0.18065,-0.90327 1.9362,-0.47228 1.9513,0.47904 0.0186,1.17384 -2.44464,3.94036 -4.14135,4.65139 -5.60434,2.34861 -12.73999,-4.99577 -7.49102,-7.71012 0.43257,-0.22373 0.72605,-0.35886 0.92191,-0.35554 z m 69.26968,0.4129 c 0.13784,0.007 0.33455,0.0747 0.60823,0.1695 3.04614,1.0546 2.1341,5.58137 -1.48208,7.35614 -4.298,2.1094 -8.68825,0.0879 -10.14512,-4.67104 -0.13154,-0.4297 0.0385,-0.61347 0.90434,-0.97823 1.17152,-0.4935 1.14523,-0.51572 1.43609,1.22421 0.8784,5.25461 8.91648,3.96428 8.47286,-1.36012 -0.11425,-1.37128 -0.1466,-1.75708 0.20568,-1.74046 z m -35.48311,2.79931 c 6.30793,-0.11392 12.71153,0.66157 16.76435,2.37092 12.52338,5.28196 26.07914,26.7912 30.43122,48.28542 2.03429,10.04701 -1.20329,15.80534 -8.88783,15.80834 -5.82631,0.003 -8.12724,-2.35561 -16.99483,-17.41393 -3.76064,-6.38607 -5.73253,-8.05513 -12.62714,-10.6903 -6.31544,-2.41382 -8.03877,-8.07011 -3.05614,-10.0304 6.45038,-2.53775 10.8694,-6.48957 12.29796,-10.99777 0.33588,-1.05996 3.18134,-0.33396 9.6144,2.45411 2.88448,1.25012 2.5881,0.78081 -2.75436,-4.36614 -10.37411,-9.99447 -14.39614,-11.79178 -25.63254,-11.45357 -9.12939,0.27478 -12.52515,2.13369 -23.73602,12.99301 -4.39887,4.26092 -4.36132,4.17 -1.15083,2.78588 2.00532,-0.86454 9.05885,-3.4184 9.44128,-3.4184 0.0548,0 0.10014,0.26789 0.10025,0.59531 10e-4,3.23408 4.9571,8.08756 10.93784,10.71098 3.73675,1.63911 3.61511,1.4808 3.61011,4.6762 -0.006,4.03701 0.0983,3.92874 -6.02909,6.26938 -6.21872,2.37554 -8.64517,4.4878 -12.27573,10.68875 -7.43552,12.69972 -8.89838,14.64136 -12.29021,16.31115 -3.89003,1.91506 -8.28724,1.11216 -11.19725,-2.04483 -9.07209,-9.84205 9.79076,-51.77918 27.24278,-60.56788 3.67134,-1.84886 9.88385,-2.85231 16.19178,-2.96623 z m -4.87929,13.4736 c 0.14964,0.006 0.46879,0.30726 0.96583,0.90485 1.28179,1.54107 1.20388,4.19101 -0.15658,5.32009 -0.45673,0.37902 -1.48654,0.55666 -2.39675,0.41289 -0.72712,-0.11484 -0.72675,-0.11519 0.076,-0.79064 1.44179,-1.21319 2.03994,-3.26845 1.50636,-5.17643 -0.12643,-0.45211 -0.12686,-0.67621 0.005,-0.67076 z m 11.4701,0.0176 c 0.13927,0.004 0.20348,0.18975 0.15762,0.58704 -0.19831,1.71761 0.2736,3.33839 1.40818,4.83743 1.04464,1.38019 1.0446,1.38028 -0.0506,1.38028 -2.16939,0 -3.96073,-2.85618 -3.01222,-4.80281 0.61235,-1.25673 1.21189,-2.01017 1.49706,-2.00194 z m -29.45711,13.22141 c -0.19794,-0.005 -0.40247,0.0114 -0.61185,0.0507 -2.30288,0.43202 -2.70738,4.0158 -0.55553,4.92218 1.44197,0.60738 3.61057,-0.79401 3.60857,-2.33165 -0.002,-1.5204 -1.05566,-2.60448 -2.44119,-2.64118 z m 48.06838,0.4098 c -2.20979,0 -3.09062,2.67698 -1.42782,4.33978 0.70537,0.70533 0.94035,0.78859 1.87275,0.66353 3.34448,-0.44859 2.93945,-5.00331 -0.44493,-5.00331 z m -56.45754,5.37693 c -1.78879,0.0343 -3.5128,2.51923 -2.11408,4.29741 0.4293,0.54577 0.77873,0.69712 1.60817,0.69712 2.2634,0 3.52118,-2.81332 1.95699,-4.37751 -0.44392,-0.44392 -0.95021,-0.62664 -1.45108,-0.61702 z m 64.48237,0.22014 c -1.03239,0.005 -2.02747,0.6279 -2.2102,1.86397 -0.16049,1.08567 0.60557,2.52534 1.54409,2.90267 2.05077,0.82449 3.69322,-0.72559 3.10059,-2.92644 -0.33213,-1.23342 -1.40208,-1.84554 -2.43448,-1.8402 z m -58.38041,6.65696 c -0.31492,0.003 -0.68382,0.12371 -1.22629,0.35037 -2.28243,0.95366 -2.49632,4.31775 -0.30024,4.72115 2.63242,0.48355 4.64696,-2.81954 2.72697,-4.47104 -0.47985,-0.41276 -0.79555,-0.60416 -1.20044,-0.60048 z m 52.65621,0.45423 c -1.10444,-0.0477 -2.15387,0.57023 -2.15387,1.76217 0,1.34619 0.42174,2.19317 1.38286,2.77916 2.27174,1.38508 4.24942,-0.72469 2.98018,-3.17913 -0.4577,-0.88511 -1.35015,-1.32506 -2.20917,-1.3622 z m -26.62783,4.96249 c 9.87211,0.0279 13.34861,2.22784 18.14825,11.48612 1.39564,2.69214 3.34279,6.23536 4.32687,7.87394 2.04694,3.40838 2.04618,3.51058 -0.0331,4.30206 -3.61195,1.37491 -4.0952,1.0615 -7.76386,-5.04258 -0.91602,-1.52411 -1.31199,-1.98997 -1.40509,-1.65158 -0.0713,0.25918 -0.27574,1.12613 -0.45372,1.9265 -0.94088,4.231 -4.22244,6.58986 -9.77666,7.02696 -1.09141,0.0859 -2.28203,0.18204 -2.64583,0.21394 -6.82264,0.59826 -12.1182,-2.30314 -13.21625,-7.2409 -0.58328,-2.62296 -0.53681,-2.56002 -1.14308,-1.55805 -4.61098,7.62058 -4.9231,7.85269 -8.59534,6.39186 -2.20014,-0.87522 -2.20152,-0.66081 0.0212,-4.35942 1.07503,-1.78887 2.88386,-5.03845 4.0194,-7.22127 5.11988,-9.84181 8.67741,-12.17548 18.51721,-12.14758 z m 63.27004,4.87154 c 0.24219,0 5.65392,2.78526 5.65392,2.9099 0,0.0788 -0.6846,0.52559 -1.52135,0.99322 -0.83674,0.46763 -2.28491,1.28729 -3.21841,1.82108 -1.13465,0.64878 -1.64418,0.83157 -1.53686,0.5519 0.0883,-0.23008 0.24379,-1.73621 0.34572,-3.34708 0.10193,-1.61087 0.22668,-2.92902 0.27698,-2.92902 z m -126.74162,0.14883 c 0.43908,-0.0157 0.37655,0.50605 0.39068,1.63711 0.0123,0.98226 0.10786,2.47055 0.21239,3.30729 h 5.1e-4 c 0.23634,1.89187 0.31472,1.89577 -3.23597,-0.1664 -3.44591,-2.00129 -3.44099,-1.81969 -0.0972,-3.53105 1.5645,-0.80071 2.34214,-1.23314 2.72955,-1.24695 z m 63.55685,1.71566 c -2.80144,0.0229 -5.65937,0.55725 -8.01295,1.59835 -1.58854,0.70268 -1.48534,0.77438 1.49242,1.04231 2.88193,0.2593 13.41979,0.0897 14.76964,-0.23771 0.92604,-0.22465 0.92601,-0.22443 -0.57464,-0.93276 -2.12809,-1.00448 -4.87303,-1.49308 -7.67447,-1.47019 z m 56.54745,1.19837 c 0.068,-0.011 0.0332,0.44907 -0.032,1.30276 -0.67763,8.87267 -2.16974,14.00279 -5.55108,19.08463 -2.8684,4.31094 -6.97559,8.17487 -6.99389,6.57996 -0.26755,-1.32064 -0.1072,-1.65924 -0.50333,-3.54139 -0.61753,-2.9341 -0.37682,-2.11089 2.4753,-5.15937 4.46295,-4.7702 7.60713,-9.55209 9.82679,-16.17008 0.47837,-1.42627 0.69877,-2.0836 0.77825,-2.09651 z m -113.14865,0.93173 c 0.12028,-0.008 0.36838,0.63911 0.80977,1.95853 0.82669,2.47113 2.93035,6.94566 4.24212,9.02271 1.28494,2.03456 1.28589,1.66119 -0.0134,4.14083 -1.28997,2.46177 -1.06081,2.44133 -2.07015,0.18397 -1.61981,-3.62263 -2.78584,-8.85109 -3.02359,-13.5599 -0.0582,-1.15184 -0.0577,-1.73836 0.0553,-1.74614 z m 9.47591,19.58433 c 0.31742,-0.0191 0.78993,0.38822 1.95337,1.39062 5.33803,4.5992 5.31196,4.6816 -2.27376,7.17062 -5.26317,1.72699 -4.9416,1.72182 -4.32119,0.0708 0.63964,-1.7022 3.21865,-6.84458 4.03645,-8.04808 0.24339,-0.35819 0.38795,-0.57087 0.60513,-0.58395 z m 82.71485,5.57331 c 0.0226,-6.1e-4 0.0378,0.004 0.0455,0.0139 0.25153,0.33427 1.88316,5.34405 2.5306,7.77007 1.09084,4.08752 1.51608,3.87721 -2.50476,1.77146 -9.09706,-4.76422 -8.45701,-3.84132 -5.00383,-6.41976 1.15021,-0.85884 4.47362,-3.12341 4.93252,-3.13572 z m -69.15392,0.22841 c 0.33534,-0.004 0.87545,0.23942 1.9389,0.70745 4.92167,2.16601 13.96966,4.73658 18.52807,5.26376 1.53964,0.17806 6.43013,10.66824 6.32467,10.64844 -0.10546,-0.0198 -1.32281,-0.13933 -2.70526,-0.2651 -9.28223,-0.84451 -20.81804,-4.47308 -27.65774,-8.70024 -0.40897,-0.14913 -0.46246,-0.18386 0.0992,-1.34772 0.71694,-1.48557 0.95939,-2.06689 2.31872,-4.61729 0.61046,-1.14537 0.66331,-1.68277 1.15342,-1.6893 z m 61.31925,10.51925 c 0.0259,0.0187 -10.91185,5.0505 -18.31516,5.74125 -1.01865,0.095 -2.06044,0.23089 -2.3151,0.30179 -0.61702,0.17171 -0.72911,0.4713 1.603,-4.28863 1.13638,-2.31939 2.21848,-4.59446 2.40451,-5.0555 0.3011,-0.74621 0.48832,-0.85777 1.70428,-1.01854 2.1648,-0.28623 7.26548,-2.14277 7.37509,-2.08583 0.0738,0.0383 5.72521,5.08583 7.54338,6.40546 z m -32.20578,-3.40651 c 0,-0.0105 8.91308,0.15489 8.73641,0.38241 -0.35372,0.45553 -3.93682,9.21174 -4.22299,9.50794 -0.36127,0.37394 -4.51342,-9.74129 -4.51342,-9.89035 z"
           id="path3" />
        <g
           transform="translate(-1.058333,-0.264583)"
           id="g17">
          <path
             d="m -376.65552,-825.85181 h 4.53561 v 5.22282 h -4.53561 z"
             transform="rotate(90)"
             id="path4" />
          <g
             stroke-linecap="square"
             id="g16">
            <circle
               cx="811.53241"
               cy="-374.38782"
               r="12.245516"
               stroke-width="0.645581"
               id="circle4" />
            <g
               transform="translate(-5e-6,1.1e-5)"
               id="g15">
              <path
                 d="m 722.21613,496.45606 16.31107,0.94977 -0.55717,10.25887 -16.13296,-0.0703 z"
                 stroke-width="11.4175"
                 transform="rotate(-60)"
                 id="path5" />
              <g
                 stroke-width="4.96055"
                 id="g14">
                <g
                   transform="matrix(0.92533699,0,0,0.92533699,59.586143,-28.210634)"
                   id="g7">
                  <path
                     d="m 810.16797,-364.27866 h 4.90157 v 5.64424 h -4.90157 z"
                     id="path6" />
                  <path
                     d="m 810.16797,-389.5842 h 4.90157 v 5.64424 h -4.90157 z"
                     id="path7" />
                </g>
                <g
                   transform="matrix(0.80136534,0.4626685,-0.4626685,0.80136534,-12.760766,-450.56268)"
                   id="g9">
                  <path
                     d="m 810.16797,-364.27866 h 4.90157 v 5.64424 h -4.90157 z"
                     id="path8" />
                  <path
                     d="m 810.16797,-389.5842 h 4.90157 v 5.64424 h -4.90157 z"
                     id="path9" />
                </g>
                <g
                   transform="matrix(0.4626685,0.80136534,-0.80136534,0.4626685,135.761,-852.50373)"
                   id="g11">
                  <path
                     d="m 810.16797,-364.27866 h 4.90157 v 5.64424 h -4.90157 z"
                     id="path10" />
                  <path
                     d="m 810.16797,-389.5842 h 4.90157 v 5.64424 h -4.90157 z"
                     id="path11" />
                </g>
                <g
                   transform="matrix(-0.4626685,0.80136534,-0.80136534,-0.4626685,887.70719,-1198.6808)"
                   id="g13">
                  <path
                     d="m 810.16797,-364.27866 h 4.90157 v 5.64424 h -4.90157 z"
                     id="path12" />
                  <path
                     d="m 810.16797,-389.5842 h 4.90157 v 5.64424 h -4.90157 z"
                     id="path13" />
                </g>
              </g>
            </g>
          </g>
          <path
             d="m -892.26917,-95.85627 h 4.53561 v 5.222821 h -4.53561 z"
             transform="rotate(150)"
             id="path16" />
        </g>
      </g>
      <circle
         cx="810.47406"
         cy="-374.6524"
         fill="none"
         r="6.1713238"
         stroke="#b07236"
         stroke-linecap="square"
         stroke-width="3.48667"
         id="circle18" />
    </g>
    <g
       fill="#2f2419"
       stroke-linecap="square"
       id="g23">
      <circle
         cx="723.66541"
         cy="-493.97702"
         r="5.3708749"
         stroke-width="0.764117"
         id="circle19" />
      <circle
         cx="704.80957"
         cy="-480.74048"
         r="5.3708749"
         stroke-width="0.764117"
         id="circle20" />
      <circle
         cx="695.29279"
         cy="-469.6218"
         r="3.392132"
         stroke-width="0.4826"
         id="circle21" />
      <circle
         cx="695.38702"
         cy="-449.92859"
         r="4.051713"
         stroke-width="0.576439"
         id="circle22" />
      <circle
         cx="765.1532"
         cy="-494.30899"
         r="4.438087"
         stroke-width="0.631409"
         id="circle23" />
    </g>
  </g>
</svg>
